<?xml version="1.0" encoding="UTF-8"?>
<svg id="Layer_2" data-name="Layer 2" xmlns="http://www.w3.org/2000/svg" xmlns:xlink="http://www.w3.org/1999/xlink" viewBox="0 0 61.76 55.93">
  <defs>
    <style>
      .cls-1 {
        fill: #bb3158;
      }

      .cls-2 {
        fill: #85072e;
      }

      .cls-3 {
        fill: #7e0128;
      }

      .cls-4 {
        fill: url(#linear-gradient-2);
      }

      .cls-5 {
        fill: #f8cade;
      }

      .cls-6 {
        fill: #d5456c;
      }

      .cls-7 {
        fill: #cc3e65;
      }

      .cls-8 {
        fill: #94133a;
      }

      .cls-9 {
        fill: #dd4b72;
      }

      .cls-10 {
        fill: #8a0b32;
      }

      .cls-11 {
        fill: #bc3259;
      }

      .cls-12 {
        fill: #c2365d;
      }

      .cls-13 {
        fill: #b12950;
      }

      .cls-14 {
        fill: #f5c1d8;
      }

      .cls-15 {
        fill: #db4a71;
      }

      .cls-16 {
        fill: #d3446b;
      }

      .cls-17 {
        fill: #82052c;
      }

      .cls-18 {
        fill: #8b0c33;
      }

      .cls-19 {
        fill: #a92249;
      }

      .cls-20 {
        fill: #b62d54;
      }

      .cls-21 {
        fill: #d04168;
      }

      .cls-22 {
        fill: #a51f46;
      }

      .cls-23 {
        fill: #b0284f;
      }

      .cls-24 {
        fill: url(#linear-gradient-14);
      }

      .cls-25 {
        fill: #c4375e;
      }

      .cls-26 {
        fill: #a31e45;
      }

      .cls-27 {
        fill: #fff8fe;
      }

      .cls-28 {
        fill: #a62047;
      }

      .cls-29 {
        fill: url(#linear-gradient-6);
      }

      .cls-30 {
        fill: #c5385f;
      }

      .cls-31 {
        fill: #f89aba;
      }

      .cls-32 {
        fill: #cf4067;
      }

      .cls-33 {
        fill: #d8476e;
      }

      .cls-34 {
        fill: #b92f56;
      }

      .cls-35 {
        fill: #9d1940;
      }

      .cls-36 {
        fill: #ca3c63;
      }

      .cls-37 {
        fill: #c1355c;
      }

      .cls-38 {
        fill: #931239;
      }

      .cls-39 {
        fill: #97153c;
      }

      .cls-40 {
        fill: #84062d;
      }

      .cls-41 {
        fill: #ac254c;
      }

      .cls-42 {
        fill: #ab244b;
      }

      .cls-43 {
        fill: url(#linear-gradient-11);
      }

      .cls-44 {
        fill: #ba3057;
      }

      .cls-45 {
        fill: #fde9f6;
      }

      .cls-46 {
        fill: #be335a;
      }

      .cls-47 {
        fill: url(#linear-gradient-10);
      }

      .cls-48 {
        fill: #d2436a;
      }

      .cls-49 {
        fill: #9f1b42;
      }

      .cls-50 {
        fill: url(#radial-gradient);
      }

      .cls-51 {
        fill: #cd3f66;
      }

      .cls-52 {
        fill: #dc4a71;
      }

      .cls-53 {
        fill: #9a173e;
      }

      .cls-54 {
        fill: #b82e55;
      }

      .cls-55 {
        fill: #900f36;
      }

      .cls-56 {
        fill: #911037;
      }

      .cls-57 {
        fill: #c0345b;
      }

      .cls-58 {
        fill: #7c0027;
      }

      .cls-59 {
        fill: #feeaf7;
      }

      .cls-60 {
        fill: #d9486f;
      }

      .cls-61 {
        fill: #fff0fb;
      }

      .cls-62 {
        fill: #aa234a;
      }

      .cls-63 {
        fill: #af274e;
      }

      .cls-64 {
        fill: #d3436a;
      }

      .cls-65 {
        fill: #b52c53;
      }

      .cls-66 {
        fill: #cd3e65;
      }

      .cls-67 {
        fill: url(#linear-gradient-5);
      }

      .cls-68 {
        fill: #9e1a41;
      }

      .cls-69 {
        fill: #81042b;
      }

      .cls-70 {
        fill: #bf335a;
      }

      .cls-71 {
        clip-path: url(#clippath);
      }

      .cls-72 {
        fill: #c63960;
      }

      .cls-73 {
        fill: #d6466d;
      }

      .cls-74 {
        fill: url(#radial-gradient-2);
      }

      .cls-75 {
        fill: #8d0d34;
      }

      .cls-76 {
        fill: #a21d44;
      }

      .cls-77 {
        fill: #d14269;
      }

      .cls-78 {
        fill: none;
      }

      .cls-79 {
        fill: #d4446b;
      }

      .cls-80 {
        fill: #d7476e;
      }

      .cls-81 {
        fill: #fbe2f1;
      }

      .cls-82 {
        fill: url(#linear-gradient-7);
      }

      .cls-83 {
        fill: #ae264d;
      }

      .cls-84 {
        fill: #880a31;
      }

      .cls-85 {
        fill: #c3375e;
      }

      .cls-86 {
        fill: #f9d9ea;
      }

      .cls-87 {
        fill: #ce4067;
      }

      .cls-88 {
        fill: #a72148;
      }

      .cls-89 {
        fill: #da4970;
      }

      .cls-90 {
        fill: url(#linear-gradient-9);
      }

      .cls-91 {
        fill: url(#linear-gradient-3);
      }

      .cls-92 {
        fill: #96143b;
      }

      .cls-93 {
        fill: #9b183f;
      }

      .cls-94 {
        fill: url(#linear-gradient);
      }

      .cls-95 {
        fill: #c73a61;
      }

      .cls-96 {
        fill: #cb3d64;
      }

      .cls-97 {
        fill: #a11c43;
      }

      .cls-98 {
        fill: #b72e55;
      }

      .cls-99 {
        fill: #b42b52;
      }

      .cls-100 {
        fill: #c63a61;
      }

      .cls-101 {
        fill: #db4970;
      }

      .cls-102 {
        fill: #8e0e35;
      }

      .cls-103 {
        fill: #b22a51;
      }

      .cls-104 {
        fill: #d14168;
      }

      .cls-105 {
        fill: #c83b62;
      }

      .cls-106 {
        fill: url(#linear-gradient-4);
      }

      .cls-107 {
        fill: #98163d;
      }

      .cls-108 {
        fill: #d7466d;
      }

      .cls-109 {
        fill: #7f0229;
      }

      .cls-110 {
        fill: url(#linear-gradient-8);
      }

      .cls-111 {
        fill: #c93c63;
      }

      .cls-112 {
        fill: #fbdbeb;
      }

      .cls-113 {
        fill: #87082f;
      }

      .cls-114 {
        fill: url(#linear-gradient-12);
      }

      .cls-115 {
        fill: url(#linear-gradient-13);
      }
    </style>
    <linearGradient id="linear-gradient" x1="-396.9" y1="129.75" x2="-372.73" y2="129.75" gradientTransform="translate(-194.08 362.17) rotate(140.16)" gradientUnits="userSpaceOnUse">
      <stop offset=".47" stop-color="#fff0fb"/>
      <stop offset=".53" stop-color="#fce5f3"/>
      <stop offset=".64" stop-color="#f8d7e9"/>
      <stop offset=".78" stop-color="#f5cee2"/>
      <stop offset="1" stop-color="#f5cce1"/>
    </linearGradient>
    <linearGradient id="linear-gradient-2" x1="-101.44" y1="-187.85" x2="-101.44" y2="-194.22" gradientTransform="translate(226.03 106.19) rotate(-39.84)" gradientUnits="userSpaceOnUse">
      <stop offset="0" stop-color="#f9a5bf"/>
      <stop offset="1" stop-color="#f5cce1"/>
    </linearGradient>
    <linearGradient id="linear-gradient-3" x1="-116.72" y1="-205.51" x2="-118.54" y2="-179.44" gradientTransform="translate(226.03 106.19) rotate(-39.84)" gradientUnits="userSpaceOnUse">
      <stop offset="0" stop-color="#f6cfe3"/>
      <stop offset=".02" stop-color="#f7d6e8"/>
      <stop offset=".06" stop-color="#fbe4f2"/>
      <stop offset=".12" stop-color="#feedf9"/>
      <stop offset=".2" stop-color="#fff0fb"/>
      <stop offset=".38" stop-color="#fad6e8"/>
      <stop offset=".57" stop-color="#f7c5da"/>
      <stop offset=".77" stop-color="#f5bad2"/>
      <stop offset="1" stop-color="#f5b7d0"/>
    </linearGradient>
    <linearGradient id="linear-gradient-4" x1="-116.72" y1="-205.51" x2="-118.54" y2="-179.44" gradientTransform="translate(226.03 106.19) rotate(-39.84)" gradientUnits="userSpaceOnUse">
      <stop offset="0" stop-color="#d22a54"/>
      <stop offset=".14" stop-color="#d94169"/>
      <stop offset=".4" stop-color="#e6688d"/>
      <stop offset=".64" stop-color="#f084a6"/>
      <stop offset=".85" stop-color="#f595b6"/>
      <stop offset="1" stop-color="#f89cbc"/>
    </linearGradient>
    <linearGradient id="linear-gradient-5" x1="-174.98" y1="154.18" x2="-174.98" y2="147.81" gradientTransform="translate(-173.53 -88.66) rotate(-107.87)" gradientUnits="userSpaceOnUse">
      <stop offset="0" stop-color="#f990b1"/>
      <stop offset="1" stop-color="#f5b8d7"/>
    </linearGradient>
    <linearGradient id="linear-gradient-6" x1="-90.24" y1="-203.02" x2="-80.65" y2="-181.35" gradientTransform="translate(226.03 106.19) rotate(-39.84)" gradientUnits="userSpaceOnUse">
      <stop offset=".39" stop-color="#fce0ef"/>
      <stop offset=".48" stop-color="#f9d2e4"/>
      <stop offset=".61" stop-color="#f7c2d9"/>
      <stop offset=".77" stop-color="#f5b9d2"/>
      <stop offset="1" stop-color="#f5b7d0"/>
    </linearGradient>
    <linearGradient id="linear-gradient-7" x1="-47.31" y1="-52.31" x2="-50.53" y2="-68.85" gradientTransform="translate(110.42 53.49) rotate(-23.29)" xlink:href="#linear-gradient-4"/>
    <linearGradient id="linear-gradient-8" x1="-369.69" y1="-328.09" x2="-369.69" y2="-334.46" gradientTransform="translate(-449.57 141.01) rotate(-151.81) scale(1 -1)" xlink:href="#linear-gradient-5"/>
    <linearGradient id="linear-gradient-9" x1="-104.29" y1="-169.84" x2="-112.46" y2="-175.52" xlink:href="#linear-gradient-4"/>
    <linearGradient id="linear-gradient-10" x1="-103.17" y1="-171.5" x2="-111.33" y2="-177.17" gradientTransform="translate(226.03 106.19) rotate(-39.84)" gradientUnits="userSpaceOnUse">
      <stop offset=".47" stop-color="#f5b7d0"/>
      <stop offset=".57" stop-color="#f5c0d7"/>
      <stop offset=".74" stop-color="#f5c9de"/>
      <stop offset="1" stop-color="#f5cce1"/>
    </linearGradient>
    <linearGradient id="linear-gradient-11" x1="-102.02" y1="-184.37" x2="-105.6" y2="-179.01" gradientTransform="translate(226.03 106.19) rotate(-39.84)" xlink:href="#linear-gradient-5"/>
    <linearGradient id="linear-gradient-12" x1="-91.05" y1="-148" x2="-75.51" y2="-166.09" gradientTransform="translate(214.43 89.44) rotate(-42.99)" xlink:href="#linear-gradient-4"/>
    <linearGradient id="linear-gradient-13" x1="-90.6" y1="-149.28" x2="-75.85" y2="-166.45" gradientTransform="translate(214.43 89.44) rotate(-42.99)" gradientUnits="userSpaceOnUse">
      <stop offset="0" stop-color="#f895b6"/>
      <stop offset=".56" stop-color="#f5b7d0"/>
      <stop offset=".64" stop-color="#f5c0d7"/>
      <stop offset=".78" stop-color="#f5c9de"/>
      <stop offset="1" stop-color="#f5cce1"/>
    </linearGradient>
    <linearGradient id="linear-gradient-14" x1="-716.07" y1="-127.01" x2="-716.07" y2="-134.64" gradientTransform="translate(-230.22 706.21) rotate(101.15)" xlink:href="#linear-gradient-5"/>
    <radialGradient id="radial-gradient" cx="-26.28" cy="-221.57" fx="-26.28" fy="-221.57" r="4.19" gradientTransform="translate(246.61 234.06) rotate(-39.84) scale(1.34)" gradientUnits="userSpaceOnUse">
      <stop offset=".28" stop-color="#d22a54"/>
      <stop offset=".38" stop-color="#d94169"/>
      <stop offset=".56" stop-color="#e6688d"/>
      <stop offset=".74" stop-color="#f084a6"/>
      <stop offset=".89" stop-color="#f595b6"/>
      <stop offset="1" stop-color="#f89cbc"/>
    </radialGradient>
    <radialGradient id="radial-gradient-2" cx="-25.53" cy="-221.97" fx="-25.53" fy="-221.97" r="10.01" gradientTransform="translate(246.61 234.06) rotate(-39.84) scale(1.34)" gradientUnits="userSpaceOnUse">
      <stop offset="0" stop-color="#f5b7d0"/>
      <stop offset=".23" stop-color="#f5b9d2"/>
      <stop offset=".39" stop-color="#f7c2d9"/>
      <stop offset=".52" stop-color="#f9d2e4"/>
      <stop offset=".61" stop-color="#fce0ef"/>
    </radialGradient>
    <clipPath id="clippath">
      <path class="cls-78" d="m30.58,26.55c-.19-.11-.23-.32-.48-.6-.45.41-.47.95-1.07.29-.11-.12-.76-1.13-.66-1.27-.33.44.08,2.2-.81,1.82-.04.96-.57.75-1.34.61-.04.69,1.13.9,1.21,1.48.05.37-1.22,1.23-1.39,1.09.39.33.98-.05,1.29.28.36.38-.31,1.02.25,1.19.46.13,1.06-.56,1.47-.45.45.12.48,1.17.66,1.53.57-.67.41-1.49.95-2.15.28-.33.44-.62.96-.62.35,0,.6.26.96.17-.34-.55-1.1-.52-1.21-1.25.13-.06.24-.24.37-.3-1.19-.59.37-1.12.6-1.82-.4-.26-.87.08-1.32.08-.21,0-.34-.03-.43-.08Z"/>
    </clipPath>
  </defs>
  <g id="layer">
    <g>
      <g>
        <g>
          <g>
            <g>
              <path class="cls-94" d="m24.77,27.5c1.26.72,2.36,1.64,3.91.35,1.18-.98,1.33-2.73.35-3.9-.57-.68-.26-4.47.03-6.54.33-2.34-.48-5.11-1.18-7.33-.45-1.42-1.54-3.92-4.1-5.82-2.1-1.56-4.2-1.9-6.23-2.23-2.88-.47-5.11-.83-7.15.19-4.76,2.39-4.62,10.37-4.6,11.62.04,2.1.14,7.82,3.87,10.38,2.86,1.97,8.05,1.74,9.66,2.12,1.45.34,2.96.21,4.41.69.36.12.7.29,1.02.48Z"/>
              <path class="cls-4" d="m18.03,26.34c2.19.14,6.18.48,6.75,1.15.98,1.18,2.73,1.33,3.9.35s1.33-2.73.35-3.9c-.57-.68-.26-4.47.03-6.54-.63,3.42-1.31,8.31-5.46,4.3,3.11,4.87-2.05,4.64-5.58,4.64Z"/>
            </g>
            <path class="cls-27" d="m17.96,13.98c3.23,3.87,5.53,7.28,5.44,7.36-.09.08-3.03-2.79-6.27-6.67-3.23-3.87-5.53-7.28-5.44-7.36.09-.08,3.03,2.79,6.27,6.67Z"/>
            <path class="cls-81" d="m16.52,17.78c3.41,3.05,6.39,5.17,6.31,5.26-.08.09-3.64-1.44-7.05-4.49-3.41-3.05-5.38-6.46-5.3-6.55s2.63,2.73,6.05,5.78Z"/>
            <path class="cls-86" d="m16.36,21.68c3.03,2.08,5.68,3.35,5.6,3.44-.08.09-3.29-.63-6.32-2.71s-4.72-4.73-4.64-4.82c.08-.09,2.33,2.01,5.36,4.09Z"/>
            <path class="cls-27" d="m21.27,13.82c2.39,3.9,3.95,7.21,4.05,7.15.1-.06-.77-3.84-3.16-7.74-2.39-3.9-5.39-6.45-5.5-6.39-.1.06,2.22,3.08,4.61,6.98Z"/>
            <path class="cls-27" d="m25.13,14.36c1.51,3.35,2.28,6.19,2.39,6.13.1-.06-.03-3.35-1.54-6.71-1.51-3.35-3.81-5.49-3.91-5.43-.1.06,1.56,2.66,3.07,6.01Z"/>
          </g>
          <g>
            <g>
              <path class="cls-91" d="m26.28,33.55c1.46-.47,2.26-2.03,1.79-3.49-.47-1.46-2.03-2.26-3.49-1.79-1.9.61-4.56-1.63-6.22-2.36-2.53-1.1-4.9-1.64-7.67-1.68-3.59-.05-6.28,2.42-7.97,5.34-1.16,2-1.84,4.75-2.35,7-.59,2.62-.96,8.09,2.95,8.16,1.91.04,3.82-.58,5.69-.41,2.29.21,4.51.89,6.82,1.01,3.3.17,5.22-1.94,6.61-4.67.65-1.28.9-2.66,1.58-3.93.45-.84,1.26-2.86,2.27-3.19Z"/>
              <path class="cls-106" d="m10.7,37.69c-4.58,2.4-8.13,9.94-10.62,3.37.23,1.94,1.08,3.63,3.24,3.67,1.91.04,3.82-.58,5.69-.41,2.29.21,4.51.89,6.82,1.01,3.3.17,5.22-1.94,6.61-4.67.65-1.28.9-2.66,1.58-3.93.45-.84,1.26-2.86,2.27-3.19,1.46-.47,2.26-2.03,1.79-3.49-.11-.35-.29-.67-.52-.93-4.22,11.64-12.07,6.07-16.85,8.56Z"/>
              <path class="cls-67" d="m22.69,39.37c.95-1.98,2.75-5.55,3.59-5.82,1.46-.47,2.26-2.03,1.79-3.49-.47-1.46-2.03-2.26-3.49-1.79-.84.27-4.24-1.43-6.05-2.48,2.93,1.87,7.21,4.33,1.94,6.67,5.68-1.06,3.54,3.63,2.22,6.91Z"/>
            </g>
            <path class="cls-112" d="m10.8,33.44c4.8-1.55,9.22-1.03,9.25-.92.04.11-4.12.39-8.92,1.94-4.8,1.55-8.42,3.78-8.46,3.66-.04-.11,3.33-3.14,8.13-4.69Z"/>
            <path class="cls-59" d="m12.9,29.81c4.54-.6,7.75-.02,7.73-.14-.02-.12-3.67-1.39-8.18-.64s-6.95,1.91-9.17,5.53c-.06.1,3.07-3.88,9.63-4.75Z"/>
            <path class="cls-61" d="m14.69,26.99c2.99.6,5.35,1.5,5.34,1.39,0-.12-2.5-1.79-5.48-2.39-2.99-.6-5.35.11-5.34.23,0,.12,2.49.18,5.48.77Z"/>
            <path class="cls-29" d="m34.32,26.4c-.72,1.35-2.4,1.86-3.75,1.13-1.35-.72-1.86-2.4-1.13-3.75.83-1.56-.92-5.13-1.31-6.73-.76-3.15-1.22-6.91-.64-10.13.57-3.15,4.51-4.48,7.18-5.2,3.45-.94,7.25-2.18,10.87-1.54,1.91.34,3.61,1.9,3.5,3.98-.13,2.3-1.53,4.15-1.03,6.6.47,2.32,2.07,5.6.1,7.63-.86.89-2,1.57-2.9,2.45-1.26,1.24-2.74,2.59-4.5,3.07-2.12.58-5.96,1.71-6.37,2.49Z"/>
            <path class="cls-82" d="m42.5,16.94c-.61,5.41-7.83,7.36-10.94,10.9,1.09.12,2.2-.41,2.76-1.44.42-.78,4.26-1.91,6.37-2.49,1.76-.48,3.23-1.83,4.5-3.07.9-.88,2.04-1.56,2.9-2.45,1.97-2.04.37-5.31-.1-7.63-.49-2.45.91-4.3,1.03-6.6.04-.8-.18-1.52-.58-2.13.97,7.01-4.81,4.86-5.94,14.91Z"/>
            <path class="cls-110" d="m40.7,23.91c-2.12.58-5.96,1.71-6.37,2.49-.72,1.35-2.4,1.86-3.75,1.13s-1.86-2.4-1.13-3.75c.42-.78-.65-4.43-1.35-6.4,1.31,3.22,2.97,7.87,6.21,3.11-2.06,5.4,2.94,4.13,6.4,3.42Z"/>
            <path class="cls-112" d="m36.67,10.85c-2.33,5.03-2.44,9.78-2.32,9.82.12.03,1.12-4.47,3.45-9.51,2.33-5.03,5.11-8.68,4.98-8.72-.12-.03-3.79,3.37-6.12,8.41Z"/>
            <path class="cls-45" d="m33.42,12.08c-.5,4.55-.49,8.21-.61,8.19s-.94-3.8-.44-8.35c.5-4.55,2.13-8.14,2.25-8.12.12.01-.69,3.73-1.19,8.28Z"/>
            <path class="cls-45" d="m30.15,14.22c.07,3.67.57,6.57.45,6.56-.12,0-1.4-3.05-1.47-6.72-.07-3.67,1.11-6.59,1.23-6.58.12,0-.28,3.07-.21,6.74Z"/>
          </g>
          <g>
            <path class="cls-90" d="m32.59,32.4c-.85-1.18-1.57-2.46-3.33-2.22-1.52.2-2.58,1.6-2.38,3.12.23,1.71-2.54,4.29-3.47,5.57-1.74,2.4-3.97,4.98-3.96,8.12.02,6.82,6.96,7.52,12.23,8.57,1.83.36,3.83.75,5.52-.29,1.77-1.09,2.67-3.24,3.53-5.03.68-1.43,1.4-2.82,2.16-4.2.54-.98,1.4-2.18,1.23-3.37-.29-2.08-2.91-3.41-4.49-4.41-2.12-1.35-4.03-3.11-5.99-4.66-.41-.32-.74-.75-1.06-1.18Z"/>
            <path class="cls-47" d="m32.59,32.4c-.85-1.18-1.57-2.46-3.33-2.22-1.52.2-2.58,1.6-2.38,3.12.23,1.71-2.54,4.29-3.47,5.57-1.74,2.4-3.97,4.98-3.96,8.12,0,1.88.64,4.75,2.56,5.6,1.02.45,2.78.34,3.79-.09,2.62-1.11,4.67-1.43,7.51-1.44,2.37-.01,3.4-1.14,5.15-2.53,1.61-1.27,5.06-3.07,5.59-5.22.54-2.18-2.94-4.13-4.41-5.06-2.12-1.35-4.03-3.11-5.99-4.66-.41-.32-.74-.75-1.06-1.18Z"/>
            <path class="cls-43" d="m37.48,37.12c-1.78-1.29-4.98-3.69-5.1-4.57-.2-1.52-1.6-2.58-3.12-2.38-1.52.2-2.58,1.6-2.38,3.12.12.88-2.16,3.92-3.51,5.52,2.36-2.56,5.54-6.33,6.91-.73-.04-5.78,4.2-2.84,7.19-.96Z"/>
            <path class="cls-5" d="m30.71,44.39c-.43-3.23-.51-5.88-.44-5.89.08-.01.7,2.57,1.13,5.8.43,3.23.52,5.88.44,5.89-.08.01-.7-2.57-1.13-5.8Z"/>
            <path class="cls-14" d="m33.96,42.69c-.87-3.04-1.82-5.38-1.75-5.4.08-.02,1.56,2.2,2.43,5.24.87,3.04.81,5.75.73,5.77-.08.02-.54-2.57-1.42-5.61Z"/>
            <path class="cls-14" d="m36.98,40.1c-1.65-2.9-3.22-5.02-3.14-5.05.07-.04,2.16,1.92,3.81,4.82s2.24,5.63,2.17,5.66c-.07.04-1.18-2.54-2.83-5.43Z"/>
            <path class="cls-112" d="m28.16,43.82c.08-3.37.36-6.02.3-6.03-.07,0-.81,2.63-.89,6-.08,3.37.54,6.2.61,6.21.07,0-.09-2.8-.02-6.17Z"/>
            <path class="cls-112" d="m25.13,44.14c.47-3.26,1.1-5.75,1.03-5.76-.07-.02-1.19,2.43-1.65,5.7-.47,3.26-.11,6.11-.04,6.13.07.02.19-2.8.66-6.06Z"/>
          </g>
          <g>
            <g>
              <path class="cls-114" d="m35.13,26.42c-1.67-.14-3.45,1.14-3.97,2.85-.32,1.04-.12,2.25.8,2.92.48.36,1.13.27,1.61.58.47.31.57.73.92,1.15,1.32,1.56,2.97,2.78,4.35,4.29,1.04,1.14,1.85,2.42,3.06,3.4,2.32,1.87,5.13,3.2,7.97,1.58,1.51-.86,2.43-2.31,3.71-3.44,1.75-1.55,4-2.41,5.77-3.95,5.93-5.14-.21-14.44-5.77-16.95-.99-.45-2.23-.62-3.32-.57-1.63.08-2.43.04-3.78.92-1.38.9-2.8,1.7-4.13,2.7-2.2,1.64-6.24,4.58-7.21,4.5Z"/>
              <path class="cls-115" d="m35.13,26.42c-1.67-.14-3.45,1.14-3.97,2.85-.32,1.04-.12,2.25.8,2.92.48.36,1.13.27,1.61.58.47.31.57.73.92,1.15,1.88,2.22,4.44,3.94,6.06,6.37,2.91,4.38,7.58,2.16,10.15-1.28,1.07-1.44,2.62-2.54,3.57-4.05,1.03-1.64,1.12-3.57,2.97-4.6.83-.47,2-.58,2.65-1.33,2.98-3.48-3.61-8.95-6.3-10.16-.99-.45-2.23-.62-3.32-.57-1.63.08-2.43.04-3.78.92-1.38.9-2.8,1.7-4.13,2.7-2.2,1.64-6.24,4.58-7.21,4.5Z"/>
              <path class="cls-24" d="m42.33,21.91c-2.2,1.64-6.24,4.58-7.21,4.5-1.67-.14-3.45,1.14-3.97,2.85s.9,2.16,2.07,3.36c3.22,3.3,3.84,2.95,4.84,4.82-1.5-3.21-4.7-7.24,1.76-7.4-6-1.35-.89-5.3,2.51-8.14Z"/>
            </g>
            <path class="cls-31" d="m47.76,30.8c-4.09-.37-7.29-1.01-7.26-1.1s3.44-.12,7.53.26,7.29,1.01,7.26,1.1-3.44.12-7.53-.26Z"/>
            <path class="cls-112" d="m49.06,27.46c-5.16.33-9.34,1.05-9.32.91.02-.13,4.4-1.78,9.56-2.12,5.16-.33,9.16.78,9.14.91-.02.13-4.22-.04-9.39.29Z"/>
            <path class="cls-112" d="m46.82,24.25c-4.2.79-7.53,1.91-7.52,1.78.02-.13,3.56-2.15,7.76-2.93,4.2-.79,7.46-.05,7.44.08-.02.13-3.49.29-7.68,1.07Z"/>
            <path class="cls-31" d="m45.38,34.18c-3.73-1.41-6.49-2.96-6.55-2.83-.06.13,2.32,2.57,6.05,3.98,3.73,1.41,7.4,1.25,7.46,1.12.06-.13-3.23-.87-6.96-2.28Z"/>
            <path class="cls-31" d="m42.21,36.9c-2.86-1.93-4.8-3.89-4.87-3.77s1.41,2.89,4.28,4.82c2.86,1.93,6.01,2.29,6.09,2.17.08-.12-2.63-1.29-5.49-3.23Z"/>
          </g>
        </g>
        <path class="cls-50" d="m31.47,24.42c.02-.46.08-.97.03-1.02-.5.49-.46,1.45-1.22,1.68-.38-.29.1-1.69.02-2.19-.07-.4-.19-1.17-.61-1.38.01.62.43,3.17-.83,2.98-.56-.09-1.08-1.83-.84-2.29-.27.52-.3,2.44-.8,2.68-.36.17-.58-.24-.82-.46-.05-.05-.95-.67-.93-.61.08.52.57,1,.83,1.44.31.52.38.75-.32.61.24.29.41.61.64.9-.77.2-1.98-.33-2.78-.4.57.62,1.31,1.01,1.87,1.76-.49.27-1.08.43-1.57.65.37.4,1.13.34,1.39.87-.39.36-.8.71-1.25.95-.4.21-.95.25-1.28.6.82.21,2.34-.6,3,.03-.13.22-.33.41-.53.56.16-.13.77.3.85.44.15.29.02.65-.07.93.38.03,1.02-.25.84.5-.13.52-.68.91-.86,1.42.03-.08.48-.29.57-.37.21-.2.33-.47.49-.71.29-.44.67-1.15,1.31-1.05,1.23.19.55,2.36,1.38,3.01.54-.98-.29-3.21.91-3.9.54.29,1.18,1.17,1.58,1.65-.09-.58-.39-1.11-.54-1.67.59.07,1.13.55,1.78.53-.32,0-1.15-1.16-1.19-1.48-.09-.68.48-1.02,1.09-1.1.8-.1,1.59.29,2.38.1-.49-.38-1.15-.4-1.73-.58-.57-.17-1.26-.32-.68-.79.13-.1.51-.18.67-.28.22-.12.26-.3.55-.39.48-.13,1.06-.03,1.57-.17-.46.13-1.63-.1-2.09-.24-.66-.19-.57-.39-.15-.81-.4-.67-1.78.55-1.15-.64.28-.52,1.53-1.29,1.25-1.9-.53.18-.89.91-1.48.89.06-.16.06-.31.22-.46-.05-.07-.1-.13-.16-.19-.38.26-.75.45-1.17.61-.16.06-.17-.31-.15-.73Z"/>
      </g>
      <polygon class="cls-74" points="18.23 20.26 28.94 28.01 25.62 19.02 29.27 27.93 31.32 16.51 29.6 28.02 36.72 18.97 29.84 28.27 41.27 19.72 29.92 28.6 39.13 27.92 29.83 28.93 32.67 36.94 29.58 29.17 31.35 43.01 29.25 29.25 26.85 36.57 28.92 29.16 24.97 32.67 28.68 28.91 18.75 36.05 28.6 28.58 15.04 28.68 28.69 28.25 18.23 20.26"/>
      <g class="cls-71">
        <rect class="cls-9" x="26.02" y="24.98" width="6.54" height="7.54"/>
        <path class="cls-9" d="m31.47,26.74c.97,1.17.82,2.9-.35,3.87-1.17.97-2.9.82-3.87-.35s-.82-2.9.35-3.87c1.17-.97,2.9-.82,3.87.35Z"/>
        <path class="cls-9" d="m31.45,26.75c.97,1.16.81,2.88-.35,3.85s-2.88.81-3.85-.35-.81-2.88.35-3.85,2.88-.81,3.85.35Z"/>
        <path class="cls-9" d="m31.44,26.77c.96,1.15.81,2.86-.34,3.82-1.15.96-2.86.81-3.82-.34-.96-1.15-.81-2.86.34-3.82,1.15-.96,2.86-.81,3.82.34Z"/>
        <path class="cls-9" d="m31.42,26.78c.95,1.14.8,2.84-.34,3.79-1.14.95-2.84.8-3.79-.34-.95-1.14-.8-2.84.34-3.79,1.14-.95,2.84-.8,3.79.34Z"/>
        <path class="cls-52" d="m31.41,26.79c.95,1.13.79,2.82-.34,3.77s-2.82.79-3.77-.34c-.95-1.13-.79-2.82.34-3.77,1.13-.95,2.82-.79,3.77.34Z"/>
        <path class="cls-52" d="m31.39,26.8c.94,1.13.79,2.8-.34,3.74s-2.8.79-3.74-.34c-.94-1.13-.79-2.8.34-3.74,1.13-.94,2.8-.79,3.74.34Z"/>
        <path class="cls-52" d="m31.38,26.81c.93,1.12.78,2.78-.34,3.72-1.12.93-2.78.78-3.72-.34-.93-1.12-.78-2.78.34-3.72,1.12-.93,2.78-.78,3.72.34Z"/>
        <path class="cls-15" d="m31.37,26.83c.93,1.11.78,2.76-.33,3.69s-2.76.78-3.69-.33c-.93-1.11-.78-2.76.33-3.69s2.76-.78,3.69.33Z"/>
        <path class="cls-15" d="m31.35,26.84c.92,1.1.77,2.74-.33,3.66s-2.74.77-3.66-.33c-.92-1.1-.77-2.74.33-3.66,1.1-.92,2.74-.77,3.66.33Z"/>
        <path class="cls-101" d="m31.34,26.85c.91,1.09.77,2.72-.33,3.64-1.09.91-2.72.77-3.64-.33-.91-1.09-.77-2.72.33-3.64,1.09-.91,2.72-.77,3.64.33Z"/>
        <path class="cls-89" d="m31.32,26.86c.91,1.09.76,2.7-.33,3.61-1.09.91-2.7.76-3.61-.33-.91-1.09-.76-2.7.33-3.61,1.09-.91,2.7-.76,3.61.33Z"/>
        <path class="cls-89" d="m31.31,26.87c.9,1.08.76,2.68-.32,3.58-1.08.9-2.68.76-3.58-.32-.9-1.08-.76-2.68.32-3.58,1.08-.9,2.68-.76,3.58.32Z"/>
        <path class="cls-60" d="m31.29,26.89c.89,1.07.75,2.66-.32,3.56-1.07.89-2.66.75-3.56-.32-.89-1.07-.75-2.66.32-3.56,1.07-.89,2.66-.75,3.56.32Z"/>
        <path class="cls-60" d="m31.28,26.9c.89,1.06.74,2.64-.32,3.53-1.06.89-2.64.74-3.53-.32-.89-1.06-.74-2.64.32-3.53,1.06-.89,2.64-.74,3.53.32Z"/>
        <path class="cls-33" d="m31.27,26.91c.88,1.06.74,2.62-.32,3.51-1.06.88-2.62.74-3.51-.32-.88-1.06-.74-2.62.32-3.51,1.06-.88,2.62-.74,3.51.32Z"/>
        <path class="cls-33" d="m31.25,26.92c.87,1.05.73,2.6-.31,3.48s-2.61.73-3.48-.31c-.87-1.05-.73-2.61.31-3.48s2.6-.73,3.48.31Z"/>
        <path class="cls-80" d="m31.24,26.93c.87,1.04.73,2.59-.31,3.45-1.04.87-2.59.73-3.45-.31-.87-1.04-.73-2.59.31-3.45,1.04-.87,2.59-.73,3.45.31Z"/>
        <path class="cls-108" d="m31.22,26.95c.86,1.03.72,2.57-.31,3.43-1.03.86-2.57.72-3.43-.31-.86-1.03-.72-2.57.31-3.43,1.03-.86,2.57-.72,3.43.31Z"/>
        <path class="cls-73" d="m31.21,26.96c.85,1.02.72,2.55-.31,3.4-1.02.85-2.55.72-3.4-.31-.85-1.02-.72-2.55.31-3.4,1.02-.85,2.55-.72,3.4.31Z"/>
        <path class="cls-6" d="m31.19,26.97c.85,1.02.71,2.53-.3,3.37-1.02.85-2.53.71-3.37-.3-.85-1.02-.71-2.53.3-3.37,1.02-.85,2.53-.71,3.37.3Z"/>
        <path class="cls-6" d="m31.18,26.98c.84,1.01.71,2.51-.3,3.35-1.01.84-2.51.71-3.35-.3-.84-1.01-.71-2.51.3-3.35,1.01-.84,2.51-.71,3.35.3Z"/>
        <path class="cls-79" d="m31.17,26.99c.83,1,.7,2.49-.3,3.32-1,.83-2.49.7-3.32-.3-.83-1-.7-2.49.3-3.32,1-.83,2.49-.7,3.32.3Z"/>
        <path class="cls-16" d="m31.15,27.01c.83.99.69,2.47-.3,3.3s-2.47.69-3.3-.3c-.83-.99-.69-2.47.3-3.3.99-.83,2.47-.69,3.3.3Z"/>
        <circle class="cls-64" cx="29.36" cy="28.5" r="2.32" transform="translate(-6.34 8.49) rotate(-14.88)"/>
        <path class="cls-48" d="m31.12,27.03c.81.98.68,2.43-.29,3.24-.98.81-2.43.68-3.24-.29-.81-.98-.68-2.43.29-3.24.98-.81,2.43-.68,3.24.29Z"/>
        <path class="cls-77" d="m31.11,27.04c.81.97.68,2.41-.29,3.22s-2.41.68-3.22-.29c-.81-.97-.68-2.41.29-3.22.97-.81,2.41-.68,3.22.29Z"/>
        <path class="cls-104" d="m31.09,27.05c.8.96.67,2.39-.29,3.19-.96.8-2.39.67-3.19-.29-.8-.96-.67-2.39.29-3.19.96-.8,2.39-.67,3.19.29Z"/>
        <path class="cls-21" d="m31.08,27.06c.79.95.67,2.37-.29,3.16-.95.8-2.37.67-3.16-.29-.79-.95-.67-2.37.29-3.16.95-.8,2.37-.67,3.16.29Z"/>
        <path class="cls-32" d="m31.07,27.08c.79.94.66,2.35-.28,3.14-.94.79-2.35.66-3.14-.28-.79-.94-.66-2.35.28-3.14.94-.79,2.35-.66,3.14.28Z"/>
        <path class="cls-87" d="m31.05,27.09c.78.94.66,2.33-.28,3.11-.94.78-2.33.66-3.11-.28-.78-.94-.66-2.33.28-3.11.94-.78,2.33-.66,3.11.28Z"/>
        <path class="cls-51" d="m31.04,27.1c.78.93.65,2.31-.28,3.09-.93.78-2.31.65-3.09-.28s-.65-2.31.28-3.09c.93-.78,2.31-.65,3.09.28Z"/>
        <path class="cls-66" d="m31.02,27.11c.77.92.64,2.29-.28,3.06-.92.77-2.29.64-3.06-.28-.77-.92-.64-2.29.28-3.06s2.29-.64,3.06.28Z"/>
        <path class="cls-7" d="m31.01,27.12c.76.91.64,2.27-.27,3.03-.91.76-2.27.64-3.03-.27-.76-.91-.64-2.27.27-3.03.91-.76,2.27-.64,3.03.27Z"/>
        <path class="cls-96" d="m30.99,27.14c.76.91.63,2.25-.27,3.01-.91.76-2.25.63-3.01-.27-.76-.91-.63-2.25.27-3.01s2.25-.63,3.01.27Z"/>
        <path class="cls-36" d="m30.98,27.15c.75.9.63,2.23-.27,2.98-.9.75-2.23.63-2.98-.27-.75-.9-.63-2.23.27-2.98.9-.75,2.23-.63,2.98.27Z"/>
        <path class="cls-111" d="m30.97,27.16c.74.89.62,2.21-.27,2.95-.89.74-2.21.62-2.95-.27-.74-.89-.62-2.21.27-2.95.89-.74,2.21-.62,2.95.27Z"/>
        <path class="cls-105" d="m30.95,27.17c.74.88.62,2.19-.26,2.93-.88.74-2.19.62-2.93-.26-.74-.88-.62-2.19.26-2.93.88-.74,2.19-.62,2.93.26Z"/>
        <path class="cls-95" d="m30.94,27.18c.73.87.61,2.17-.26,2.9-.87.73-2.17.61-2.9-.26-.73-.87-.61-2.17.26-2.9.87-.73,2.17-.61,2.9.26Z"/>
        <path class="cls-100" d="m30.92,27.2c.72.87.61,2.15-.26,2.88-.87.72-2.15.61-2.88-.26-.72-.87-.61-2.15.26-2.88.87-.72,2.15-.61,2.88.26Z"/>
        <path class="cls-72" d="m30.91,27.21c.72.86.6,2.13-.26,2.85-.86.72-2.13.6-2.85-.26-.72-.86-.6-2.13.26-2.85.86-.72,2.13-.6,2.85.26Z"/>
        <path class="cls-30" d="m30.89,27.22c.71.85.6,2.11-.25,2.82s-2.11.6-2.82-.25-.6-2.11.25-2.82c.85-.71,2.11-.6,2.82.25Z"/>
        <path class="cls-25" d="m30.88,27.23c.7.84.59,2.09-.25,2.8-.84.7-2.09.59-2.8-.25s-.59-2.09.25-2.8c.84-.7,2.09-.59,2.8.25Z"/>
        <path class="cls-85" d="m30.87,27.24c.7.83.58,2.07-.25,2.77-.83.7-2.07.58-2.77-.25-.7-.83-.58-2.07.25-2.77.83-.7,2.07-.58,2.77.25Z"/>
        <path class="cls-12" d="m30.85,27.26c.69.83.58,2.06-.25,2.74-.83.69-2.06.58-2.74-.25-.69-.83-.58-2.06.25-2.74.83-.69,2.06-.58,2.74.25Z"/>
        <path class="cls-37" d="m30.84,27.27c.68.82.57,2.04-.25,2.72-.82.68-2.04.57-2.72-.25-.68-.82-.57-2.04.25-2.72.82-.68,2.04-.57,2.72.25Z"/>
        <path class="cls-57" d="m30.82,27.28c.68.81.57,2.02-.24,2.69-.81.68-2.02.57-2.69-.24-.68-.81-.57-2.02.24-2.69.81-.68,2.02-.57,2.69.24Z"/>
        <path class="cls-70" d="m30.81,27.29c.67.8.56,2-.24,2.67-.8.67-2,.56-2.67-.24-.67-.8-.56-2,.24-2.67.8-.67,2-.56,2.67.24Z"/>
        <path class="cls-46" d="m30.79,27.3c.66.79.56,1.98-.24,2.64-.79.66-1.98.56-2.64-.24-.66-.79-.56-1.98.24-2.64s1.98-.56,2.64.24Z"/>
        <path class="cls-11" d="m30.78,27.32c.66.79.55,1.96-.24,2.61-.79.66-1.96.55-2.61-.24-.66-.79-.55-1.96.24-2.61s1.96-.55,2.61.24Z"/>
        <path class="cls-1" d="m30.77,27.33c.65.78.55,1.94-.23,2.59-.78.65-1.94.55-2.59-.23-.65-.78-.55-1.94.23-2.59.78-.65,1.94-.55,2.59.23Z"/>
        <path class="cls-44" d="m30.75,27.34c.64.77.54,1.92-.23,2.56-.77.64-1.92.54-2.56-.23-.64-.77-.54-1.92.23-2.56.77-.64,1.92-.54,2.56.23Z"/>
        <path class="cls-34" d="m30.74,27.35c.64.76.53,1.9-.23,2.53-.76.64-1.9.53-2.53-.23-.64-.76-.53-1.9.23-2.53.76-.64,1.9-.53,2.53.23Z"/>
        <path class="cls-54" d="m30.72,27.36c.63.76.53,1.88-.23,2.51-.76.63-1.88.53-2.51-.23-.63-.76-.53-1.88.23-2.51.76-.63,1.88-.53,2.51.23Z"/>
        <path class="cls-98" d="m30.71,27.38c.62.75.52,1.86-.22,2.48-.75.62-1.86.52-2.48-.22-.62-.75-.52-1.86.22-2.48.75-.62,1.86-.52,2.48.22Z"/>
        <path class="cls-20" d="m30.69,27.39c.62.74.52,1.84-.22,2.46s-1.84.52-2.46-.22c-.62-.74-.52-1.84.22-2.46.74-.62,1.84-.52,2.46.22Z"/>
        <path class="cls-65" d="m30.68,27.4c.61.73.51,1.82-.22,2.43-.73.61-1.82.51-2.43-.22-.61-.73-.51-1.82.22-2.43.73-.61,1.82-.51,2.43.22Z"/>
        <path class="cls-99" d="m30.67,27.41c.6.72.51,1.8-.22,2.4-.72.6-1.8.51-2.4-.22-.6-.72-.51-1.8.22-2.4.72-.6,1.8-.51,2.4.22Z"/>
        <path class="cls-103" d="m30.65,27.42c.6.72.5,1.78-.21,2.38-.72.6-1.78.5-2.38-.21-.6-.72-.5-1.78.21-2.38.72-.6,1.78-.5,2.38.21Z"/>
        <path class="cls-13" d="m30.64,27.43c.59.71.5,1.76-.21,2.35-.71.59-1.76.5-2.35-.21-.59-.71-.5-1.76.21-2.35.71-.59,1.76-.5,2.35.21Z"/>
        <path class="cls-23" d="m30.62,27.45c.58.7.49,1.74-.21,2.33-.7.58-1.74.49-2.33-.21-.58-.7-.49-1.74.21-2.33.7-.58,1.74-.49,2.33.21Z"/>
        <path class="cls-63" d="m30.61,27.46c.58.69.48,1.72-.21,2.3-.69.58-1.72.48-2.3-.21-.58-.69-.48-1.72.21-2.3.69-.58,1.72-.48,2.3.21Z"/>
        <path class="cls-83" d="m30.59,27.47c.57.68.48,1.7-.21,2.27-.68.57-1.7.48-2.27-.21-.57-.68-.48-1.7.21-2.27.68-.57,1.7-.48,2.27.21Z"/>
        <path class="cls-41" d="m30.58,27.48c.56.68.47,1.68-.2,2.25s-1.68.47-2.25-.2c-.56-.68-.47-1.68.2-2.25.68-.56,1.68-.47,2.25.2Z"/>
        <path class="cls-42" d="m30.57,27.49c.56.67.47,1.66-.2,2.22-.67.56-1.66.47-2.22-.2-.56-.67-.47-1.66.2-2.22.67-.56,1.66-.47,2.22.2Z"/>
        <path class="cls-62" d="m30.55,27.51c.55.66.46,1.64-.2,2.19-.66.55-1.64.46-2.19-.2-.55-.66-.46-1.64.2-2.19.66-.55,1.64-.46,2.19.2Z"/>
        <path class="cls-19" d="m30.54,27.52c.54.65.46,1.62-.2,2.17-.65.54-1.62.46-2.17-.2-.54-.65-.46-1.62.2-2.17.65-.54,1.62-.46,2.17.2Z"/>
        <path class="cls-88" d="m30.52,27.53c.54.64.45,1.6-.19,2.14-.64.54-1.6.45-2.14-.19s-.45-1.6.19-2.14c.64-.54,1.6-.45,2.14.19Z"/>
        <path class="cls-28" d="m30.51,27.54c.53.64.45,1.58-.19,2.12-.64.53-1.58.45-2.12-.19-.53-.64-.45-1.58.19-2.12.64-.53,1.58-.45,2.12.19Z"/>
        <path class="cls-22" d="m30.49,27.55c.52.63.44,1.56-.19,2.09-.63.52-1.56.44-2.09-.19-.52-.63-.44-1.56.19-2.09.63-.52,1.56-.44,2.09.19Z"/>
        <path class="cls-26" d="m30.48,27.57c.52.62.43,1.54-.19,2.06-.62.52-1.54.43-2.06-.19-.52-.62-.43-1.54.19-2.06.62-.52,1.54-.43,2.06.19Z"/>
        <path class="cls-76" d="m30.47,27.58c.51.61.43,1.53-.18,2.04s-1.53.43-2.04-.18c-.51-.61-.43-1.53.18-2.04s1.53-.43,2.04.18Z"/>
        <path class="cls-97" d="m30.45,27.59c.51.61.42,1.51-.18,2.01-.61.51-1.51.42-2.01-.18-.51-.61-.42-1.51.18-2.01.61-.51,1.51-.42,2.01.18Z"/>
        <path class="cls-49" d="m30.44,27.6c.5.6.42,1.49-.18,1.98-.6.5-1.49.42-1.98-.18s-.42-1.49.18-1.98,1.49-.42,1.98.18Z"/>
        <path class="cls-68" d="m30.42,27.61c.49.59.41,1.47-.18,1.96s-1.47.41-1.96-.18c-.49-.59-.41-1.47.18-1.96s1.47-.41,1.96.18Z"/>
        <path class="cls-35" d="m30.41,27.63c.49.58.41,1.45-.17,1.93-.58.49-1.45.41-1.93-.17-.49-.58-.41-1.45.17-1.93.58-.49,1.45-.41,1.93.17Z"/>
        <path class="cls-93" d="m30.39,27.64c.48.57.4,1.43-.17,1.91-.57.48-1.43.4-1.91-.17-.48-.57-.4-1.43.17-1.91.57-.48,1.43-.4,1.91.17Z"/>
        <path class="cls-53" d="m30.38,27.65c.47.57.4,1.41-.17,1.88-.57.47-1.41.4-1.88-.17-.47-.57-.4-1.41.17-1.88.57-.47,1.41-.4,1.88.17Z"/>
        <path class="cls-107" d="m30.37,27.66c.47.56.39,1.39-.17,1.85-.56.47-1.39.39-1.85-.17-.47-.56-.39-1.39.17-1.85.56-.47,1.39-.39,1.85.17Z"/>
        <path class="cls-39" d="m30.35,27.67c.46.55.39,1.37-.16,1.83-.55.46-1.37.39-1.83-.16-.46-.55-.39-1.37.16-1.83.55-.46,1.37-.39,1.83.16Z"/>
        <path class="cls-92" d="m30.34,27.69c.45.54.38,1.35-.16,1.8-.54.45-1.35.38-1.8-.16-.45-.54-.38-1.35.16-1.8.54-.45,1.35-.38,1.8.16Z"/>
        <path class="cls-8" d="m30.32,27.7c.45.53.37,1.33-.16,1.77s-1.33.37-1.77-.16c-.45-.53-.37-1.33.16-1.77s1.33-.37,1.77.16Z"/>
        <path class="cls-38" d="m30.31,27.71c.44.53.37,1.31-.16,1.75-.53.44-1.31.37-1.75-.16-.44-.53-.37-1.31.16-1.75.53-.44,1.31-.37,1.75.16Z"/>
        <path class="cls-56" d="m30.29,27.72c.43.52.36,1.29-.16,1.72-.52.43-1.29.36-1.72-.16-.43-.52-.36-1.29.16-1.72.52-.43,1.29-.36,1.72.16Z"/>
        <path class="cls-55" d="m30.28,27.73c.43.51.36,1.27-.15,1.7-.51.43-1.27.36-1.7-.15-.43-.51-.36-1.27.15-1.7.51-.43,1.27-.36,1.7.15Z"/>
        <path class="cls-102" d="m30.27,27.74c.42.5.35,1.25-.15,1.67-.5.42-1.25.35-1.67-.15s-.35-1.25.15-1.67c.5-.42,1.25-.35,1.67.15Z"/>
        <path class="cls-75" d="m30.25,27.76c.41.49.35,1.23-.15,1.64-.49.41-1.23.35-1.64-.15-.41-.49-.35-1.23.15-1.64.49-.41,1.23-.35,1.64.15Z"/>
        <path class="cls-18" d="m30.24,27.77c.41.49.34,1.21-.15,1.62-.49.41-1.21.34-1.62-.15-.41-.49-.34-1.21.15-1.62s1.21-.34,1.62.15Z"/>
        <path class="cls-10" d="m30.22,27.78c.4.48.34,1.19-.14,1.59s-1.19.34-1.59-.14-.34-1.19.14-1.59,1.19-.34,1.59.14Z"/>
        <path class="cls-84" d="m30.21,27.79c.39.47.33,1.17-.14,1.56s-1.17.33-1.56-.14-.33-1.17.14-1.56,1.17-.33,1.56.14Z"/>
        <path class="cls-113" d="m30.19,27.8c.39.46.32,1.15-.14,1.54-.46.39-1.15.32-1.54-.14-.39-.46-.32-1.15.14-1.54.46-.39,1.15-.32,1.54.14Z"/>
        <path class="cls-2" d="m30.18,27.82c.38.46.32,1.13-.14,1.51-.46.38-1.13.32-1.51-.14-.38-.46-.32-1.13.14-1.51s1.13-.32,1.51.14Z"/>
        <path class="cls-40" d="m30.17,27.83c.37.45.31,1.11-.13,1.49-.45.37-1.11.31-1.49-.13-.37-.45-.31-1.11.13-1.49.45-.37,1.11-.31,1.49.13Z"/>
        <path class="cls-17" d="m30.15,27.84c.37.44.31,1.09-.13,1.46-.44.37-1.09.31-1.46-.13-.37-.44-.31-1.09.13-1.46.44-.37,1.09-.31,1.46.13Z"/>
        <path class="cls-69" d="m30.14,27.85c.36.43.3,1.07-.13,1.43-.43.36-1.07.3-1.43-.13-.36-.43-.3-1.07.13-1.43.43-.36,1.07-.3,1.43.13Z"/>
        <path class="cls-109" d="m30.12,27.86c.35.42.3,1.05-.13,1.41s-1.05.3-1.41-.13c-.35-.42-.3-1.05.13-1.41s1.05-.3,1.41.13Z"/>
        <path class="cls-3" d="m30.11,27.88c.35.42.29,1.03-.12,1.38-.42.35-1.03.29-1.38-.12-.35-.42-.29-1.03.12-1.38.42-.35,1.03-.29,1.38.12Z"/>
        <path class="cls-58" d="m30.09,27.89c.34.41.29,1.01-.12,1.35-.41.34-1.01.29-1.35-.12-.34-.41-.29-1.01.12-1.35.41-.34,1.01-.29,1.36.12Z"/>
      </g>
      <g>
        <path class="cls-58" d="m15.13,28.33c.2.24.17.59-.07.79s-.59.17-.79-.07c-.2-.24-.17-.59.07-.79.24-.2.59-.17.79.07Z"/>
        <path class="cls-58" d="m18.6,19.79c.2.24.17.59-.07.79-.24.2-.59.17-.79-.07-.2-.24-.17-.59.07-.79.24-.2.59-.17.79.07Z"/>
        <path class="cls-58" d="m31.42,15.88c.2.24.17.59-.07.79-.24.2-.59.17-.79-.07s-.17-.59.07-.79c.24-.2.59-.17.79.07Z"/>
        <path class="cls-58" d="m32.15,15.71c.2.24.17.59-.07.79-.24.2-.59.17-.79-.07-.2-.24-.17-.59.07-.79s.59-.17.79.07Z"/>
        <path class="cls-58" d="m31.7,16.22c.2.24.17.59-.07.79s-.59.17-.79-.07c-.2-.24-.17-.59.07-.79s.59-.17.79.07Z"/>
        <path class="cls-58" d="m34.19,25.49c.2.24.17.59-.07.79-.24.2-.59.17-.79-.07s-.17-.59.07-.79c.24-.2.59-.17.79.07Z"/>
        <path class="cls-58" d="m23.88,24.08c.2.24.17.59-.07.79-.24.2-.59.17-.79-.07-.2-.24-.17-.59.07-.79s.59-.17.79.07Z"/>
        <path class="cls-58" d="m25.4,32.31c.2.24.17.59-.07.79s-.59.17-.79-.07c-.2-.24-.17-.59.07-.79.24-.2.59-.17.79.07Z"/>
        <path class="cls-58" d="m39.56,27.56c.2.24.17.59-.07.79-.24.2-.59.17-.79-.07-.2-.24-.17-.59.07-.79.24-.2.59-.17.79.07Z"/>
        <path class="cls-58" d="m41.57,19.33c.2.24.17.59-.07.79-.24.2-.59.17-.79-.07-.2-.24-.17-.59.07-.79.24-.2.59-.17.79.07Z"/>
        <path class="cls-58" d="m27.28,36.21c.2.24.17.59-.07.79-.24.2-.59.17-.79-.07-.2-.24-.17-.59.07-.79.24-.2.59-.17.79.07Z"/>
        <path class="cls-58" d="m19.08,35.71c.2.24.17.59-.07.79-.24.2-.59.17-.79-.07-.2-.24-.17-.59.07-.79s.59-.17.79.07Z"/>
        <path class="cls-58" d="m25.82,19.03c.2.24.17.59-.07.79s-.59.17-.79-.07-.17-.59.07-.79c.24-.2.59-.17.79.07Z"/>
        <path class="cls-58" d="m26.02,18.58c.2.24.17.59-.07.79-.24.2-.59.17-.79-.07s-.17-.59.07-.79c.24-.2.59-.17.79.07Z"/>
        <path class="cls-58" d="m15.42,28.07c.13.16.11.4-.05.53-.16.13-.4.11-.53-.05-.13-.16-.11-.4.05-.53.16-.13.4-.11.53.05Z"/>
        <path class="cls-58" d="m36.91,18.57c.13.16.11.4-.05.53-.16.13-.4.11-.53-.05-.13-.16-.11-.4.05-.53.16-.13.4-.11.53.05Z"/>
        <path class="cls-58" d="m30.91,21.51c.13.16.11.4-.05.53-.16.13-.4.11-.53-.05-.13-.16-.11-.4.05-.53.16-.13.4-.11.53.05Z"/>
      </g>
    </g>
  </g>
</svg>