<svg width="75" height="74" viewBox="0 0 75 74" fill="none" xmlns="http://www.w3.org/2000/svg">
<g id="apple">
<rect x="1" y="0.5" width="73" height="73" rx="6.5" fill="#FEF1F9"/>
<rect x="1" y="0.5" width="73" height="73" rx="6.5" stroke="#FFA1DA"/>
<path id="Vector" d="M54.0258 27.3669C53.7753 27.5613 49.3516 30.0539 49.3516 35.5965C49.3516 42.0074 54.9805 44.2754 55.149 44.3315C55.1231 44.4698 54.2548 47.4376 52.1812 50.4616C50.3322 53.1227 48.4012 55.7795 45.4636 55.7795C42.526 55.7795 41.77 54.0731 38.3788 54.0731C35.074 54.0731 33.8989 55.8357 31.2119 55.8357C28.5249 55.8357 26.65 53.3733 24.4943 50.3493C21.9973 46.7983 19.9799 41.2816 19.9799 36.0458C19.9799 27.6477 25.4404 23.1938 30.8145 23.1938C33.67 23.1938 36.0503 25.0687 37.8431 25.0687C39.5495 25.0687 42.2106 23.0815 45.4593 23.0815C46.6905 23.0815 51.1141 23.1938 54.0258 27.3669ZM43.917 19.5261C45.2605 17.932 46.2109 15.7202 46.2109 13.5083C46.2109 13.2016 46.185 12.8906 46.1289 12.64C43.9429 12.7221 41.3423 14.0959 39.7741 15.9146C38.5429 17.3143 37.3938 19.5261 37.3938 21.7682C37.3938 22.1051 37.45 22.4421 37.4759 22.5501C37.6141 22.576 37.8388 22.6063 38.0634 22.6063C40.0247 22.6063 42.4914 21.293 43.917 19.5261Z" fill="black"/>
</g>
</svg>
