<svg width="20" height="21" viewBox="0 0 20 21" fill="none" xmlns="http://www.w3.org/2000/svg">
<path d="M12.9422 16.6127C13.0003 16.6708 13.0463 16.7397 13.0777 16.8156C13.1092 16.8915 13.1253 16.9728 13.1253 17.0549C13.1253 17.137 13.1092 17.2184 13.0777 17.2942C13.0463 17.3701 13.0003 17.439 12.9422 17.4971C12.8841 17.5552 12.8152 17.6012 12.7393 17.6327C12.6634 17.6641 12.5821 17.6803 12.5 17.6803C12.4179 17.6803 12.3366 17.6641 12.2607 17.6327C12.1848 17.6012 12.1159 17.5552 12.0578 17.4971L5.80781 11.2471C5.7497 11.1891 5.7036 11.1201 5.67215 11.0443C5.6407 10.9684 5.62451 10.887 5.62451 10.8049C5.62451 10.7228 5.6407 10.6414 5.67215 10.5656C5.7036 10.4897 5.7497 10.4208 5.80781 10.3627L12.0578 4.11273C12.1751 3.99545 12.3341 3.92957 12.5 3.92957C12.6659 3.92957 12.8249 3.99545 12.9422 4.11273C13.0595 4.23 13.1253 4.38906 13.1253 4.55491C13.1253 4.72077 13.0595 4.87982 12.9422 4.9971L7.13359 10.8049L12.9422 16.6127Z" fill="black"/>
</svg>
