<svg width="24" height="24" viewBox="0 0 24 24" fill="none" xmlns="http://www.w3.org/2000/svg">
<path d="M12.75 7.49997V11.5753L16.1362 13.6068C16.3068 13.7093 16.4297 13.8753 16.4779 14.0683C16.526 14.2614 16.4956 14.4657 16.3931 14.6362C16.2907 14.8068 16.1247 14.9297 15.9316 14.9778C15.7386 15.026 15.5343 14.9955 15.3637 14.8931L11.6137 12.6431C11.5028 12.5764 11.4109 12.4821 11.3472 12.3694C11.2834 12.2567 11.25 12.1294 11.25 12V7.49997C11.25 7.30106 11.329 7.11029 11.4697 6.96964C11.6103 6.82899 11.8011 6.74997 12 6.74997C12.1989 6.74997 12.3897 6.82899 12.5303 6.96964C12.671 7.11029 12.75 7.30106 12.75 7.49997ZM21 5.24997C20.8011 5.24997 20.6103 5.32899 20.4697 5.46964C20.329 5.61029 20.25 5.80106 20.25 5.99997V7.68747C19.6547 6.99747 19.0472 6.33278 18.3637 5.64091C17.113 4.39001 15.5213 3.53543 13.7876 3.18396C12.054 2.83249 10.2552 2.99971 8.61598 3.66472C6.9768 4.32974 5.56994 5.46306 4.57119 6.92307C3.57243 8.38309 3.02607 10.1051 3.00038 11.8738C2.97469 13.6426 3.47081 15.3797 4.42674 16.8681C5.38267 18.3565 6.75603 19.5302 8.3752 20.2425C9.99438 20.9549 11.7876 21.1743 13.5307 20.8733C15.2739 20.5723 16.8897 19.7643 18.1762 18.5503C18.2479 18.4826 18.3055 18.4014 18.3458 18.3114C18.3861 18.2214 18.4083 18.1244 18.411 18.0259C18.4138 17.9273 18.3972 17.8292 18.362 17.7371C18.3269 17.645 18.274 17.5607 18.2062 17.489C18.1385 17.4174 18.0574 17.3598 17.9674 17.3195C17.8774 17.2792 17.7804 17.257 17.6818 17.2542C17.5833 17.2515 17.4852 17.2681 17.393 17.3032C17.3009 17.3384 17.2166 17.3913 17.145 17.459C16.0725 18.4697 14.7261 19.1421 13.2738 19.3921C11.8215 19.6422 10.3277 19.4589 8.97901 18.865C7.63028 18.2712 6.48639 17.2932 5.69016 16.0532C4.89394 14.8131 4.48068 13.366 4.50198 11.8925C4.52328 10.419 4.9782 8.98439 5.80994 7.76788C6.64167 6.55138 7.81336 5.60685 9.17869 5.05226C10.544 4.49767 12.0425 4.3576 13.4869 4.64952C14.9314 4.94145 16.2578 5.65245 17.3006 6.69372C18.0637 7.46622 18.7322 8.2106 19.4062 8.99997H17.25C17.0511 8.99997 16.8603 9.07899 16.7197 9.21964C16.579 9.36029 16.5 9.55106 16.5 9.74997C16.5 9.94888 16.579 10.1396 16.7197 10.2803C16.8603 10.421 17.0511 10.5 17.25 10.5H21C21.1989 10.5 21.3897 10.421 21.5303 10.2803C21.671 10.1396 21.75 9.94888 21.75 9.74997V5.99997C21.75 5.80106 21.671 5.61029 21.5303 5.46964C21.3897 5.32899 21.1989 5.24997 21 5.24997Z" fill="#464646"/>
</svg>
