<svg width="48" height="49" viewBox="0 0 48 49" fill="none" xmlns="http://www.w3.org/2000/svg">
<g id="Community">
<path id="Vector" d="M45.9 28.7C45.7424 28.8182 45.5631 28.9042 45.3723 28.953C45.1815 29.0019 44.9829 29.0128 44.7879 28.9849C44.5929 28.957 44.4053 28.891 44.2358 28.7907C44.0663 28.6903 43.9182 28.5576 43.8 28.4C42.8959 27.1847 41.7191 26.1987 40.3643 25.5213C39.0096 24.8439 37.5147 24.4941 36 24.5C35.705 24.4999 35.4166 24.4129 35.1708 24.2499C34.925 24.0868 34.7328 23.8549 34.6181 23.5831C34.5403 23.3985 34.5001 23.2003 34.5001 23C34.5001 22.7997 34.5403 22.6014 34.6181 22.4168C34.7328 22.1451 34.925 21.9132 35.1708 21.7501C35.4166 21.587 35.705 21.5 36 21.5C36.8416 21.4999 37.6664 21.2638 38.3806 20.8185C39.0947 20.3732 39.6697 19.7365 40.0402 18.9808C40.4107 18.2251 40.5618 17.3806 40.4764 16.5433C40.391 15.706 40.0725 14.9095 39.557 14.2441C39.0416 13.5788 38.3499 13.0713 37.5606 12.7794C36.7712 12.4874 35.9158 12.4227 35.0914 12.5926C34.2671 12.7624 33.507 13.16 32.8973 13.7403C32.2876 14.3205 31.8529 15.0601 31.6425 15.875C31.5933 16.0658 31.5069 16.2451 31.3884 16.4025C31.2699 16.56 31.1215 16.6925 30.9517 16.7926C30.782 16.8928 30.5942 16.9585 30.399 16.986C30.2039 17.0135 30.0052 17.0023 29.8144 16.9531C29.6235 16.9038 29.4443 16.8175 29.2868 16.699C29.1294 16.5805 28.9968 16.4321 28.8967 16.2623C28.7966 16.0926 28.7309 15.9047 28.7034 15.7096C28.6758 15.5145 28.687 15.3158 28.7363 15.125C29.0283 13.9949 29.58 12.9487 30.3476 12.0694C31.1152 11.1901 32.0773 10.5021 33.1576 10.0601C34.2378 9.61815 35.4063 9.43438 36.5701 9.52346C37.7338 9.61254 38.8607 9.972 39.8611 10.5732C40.8615 11.1745 41.7078 12.0009 42.3326 12.9868C42.9574 13.9726 43.3435 15.0907 43.4601 16.252C43.5768 17.4133 43.4208 18.5858 43.0045 19.6762C42.5883 20.7667 41.9233 21.7449 41.0625 22.5331C43.1021 23.4162 44.8752 24.8176 46.2056 26.5981C46.3238 26.7561 46.4097 26.9358 46.4583 27.1271C46.5069 27.3183 46.5173 27.5172 46.4889 27.7124C46.4605 27.9077 46.3939 28.0954 46.2928 28.2649C46.1918 28.4343 46.0583 28.5822 45.9 28.7ZM35.7975 40.25C35.906 40.4207 35.9789 40.6116 36.0117 40.8112C36.0446 41.0109 36.0367 41.2151 35.9886 41.4116C35.9404 41.608 35.8531 41.7928 35.7317 41.9546C35.6103 42.1165 35.4574 42.2521 35.2823 42.3533C35.1071 42.4546 34.9133 42.5193 34.7125 42.5437C34.5117 42.5681 34.308 42.5517 34.1137 42.4953C33.9194 42.4389 33.7385 42.3438 33.5819 42.2158C33.4253 42.0877 33.2963 41.9292 33.2025 41.75C32.2576 40.15 30.9118 38.824 29.298 37.9028C27.6843 36.9817 25.8582 36.4972 24 36.4972C22.1418 36.4972 20.3157 36.9817 18.702 37.9028C17.0882 38.824 15.7424 40.15 14.7975 41.75C14.7037 41.9292 14.5747 42.0877 14.4181 42.2158C14.2615 42.3438 14.0806 42.4389 13.8863 42.4953C13.692 42.5517 13.4883 42.5681 13.2875 42.5437C13.0867 42.5193 12.8929 42.4546 12.7177 42.3533C12.5426 42.2521 12.3897 42.1165 12.2683 41.9546C12.147 41.7928 12.0596 41.608 12.0114 41.4116C11.9633 41.2151 11.9554 41.0109 11.9883 40.8112C12.0211 40.6116 12.094 40.4207 12.2025 40.25C13.6567 37.7513 15.8741 35.785 18.5288 34.64C17.035 33.4963 15.9372 31.9133 15.3896 30.1134C14.8421 28.3135 14.8723 26.3873 15.4761 24.6055C16.0799 22.8238 17.2268 21.276 18.7558 20.1797C20.2847 19.0835 22.1187 18.494 24 18.494C25.8813 18.494 27.7153 19.0835 29.2442 20.1797C30.7732 21.276 31.9201 22.8238 32.5239 24.6055C33.1277 26.3873 33.1579 28.3135 32.6104 30.1134C32.0628 31.9133 30.965 33.4963 29.4713 34.64C32.1259 35.785 34.3433 37.7513 35.7975 40.25ZM24 33.5C25.1867 33.5 26.3467 33.1481 27.3334 32.4888C28.3201 31.8295 29.0892 30.8924 29.5433 29.7961C29.9974 28.6997 30.1162 27.4933 29.8847 26.3294C29.6532 25.1655 29.0818 24.0964 28.2426 23.2573C27.4035 22.4182 26.3344 21.8468 25.1705 21.6153C24.0067 21.3837 22.8003 21.5026 21.7039 21.9567C20.6075 22.4108 19.6705 23.1799 19.0112 24.1665C18.3519 25.1532 18 26.3133 18 27.5C18 29.0913 18.6321 30.6174 19.7574 31.7426C20.8826 32.8678 22.4087 33.5 24 33.5ZM13.5 23C13.5 22.6021 13.342 22.2206 13.0607 21.9393C12.7794 21.658 12.3978 21.5 12 21.5C11.1584 21.4999 10.3336 21.2638 9.61944 20.8185C8.90527 20.3732 8.33029 19.7365 7.95981 18.9808C7.58934 18.2251 7.43822 17.3806 7.52363 16.5433C7.60903 15.706 7.92753 14.9095 8.44296 14.2441C8.95838 13.5788 9.65006 13.0713 10.4394 12.7794C11.2288 12.4874 12.0842 12.4227 12.9086 12.5926C13.7329 12.7624 14.493 13.16 15.1027 13.7403C15.7124 14.3205 16.1471 15.0601 16.3575 15.875C16.457 16.2604 16.7054 16.5905 17.0483 16.7926C17.3911 16.9948 17.8002 17.0526 18.1856 16.9531C18.571 16.8536 18.9011 16.6052 19.1033 16.2623C19.3055 15.9195 19.3632 15.5104 19.2638 15.125C18.9717 13.9949 18.42 12.9487 17.6524 12.0694C16.8848 11.1901 15.9227 10.5021 14.8424 10.0601C13.7622 9.61815 12.5937 9.43438 11.4299 9.52346C10.2662 9.61254 9.13926 9.972 8.13887 10.5732C7.13847 11.1745 6.29221 12.0009 5.66742 12.9868C5.04262 13.9726 4.65654 15.0907 4.53988 16.252C4.42323 17.4133 4.57923 18.5858 4.99546 19.6762C5.4117 20.7667 6.07668 21.7449 6.9375 22.5331C4.89991 23.417 3.12884 24.8184 1.8 26.5981C1.56106 26.9164 1.45833 27.3165 1.51442 27.7105C1.5705 28.1045 1.78081 28.4601 2.09907 28.699C2.41733 28.938 2.81747 29.0407 3.21147 28.9846C3.60548 28.9285 3.96106 28.7182 4.2 28.4C5.1041 27.1847 6.2809 26.1987 7.63568 25.5213C8.99045 24.8439 10.4853 24.4941 12 24.5C12.3978 24.5 12.7794 24.3419 13.0607 24.0606C13.342 23.7793 13.5 23.3978 13.5 23Z" fill="#FEF1F9"/>
</g>
</svg>
