<svg width="48" height="49" viewBox="0 0 48 49" fill="none" xmlns="http://www.w3.org/2000/svg">
<g id="Culture">
<path id="Vector" d="M39 11C36.9567 11 34.9314 11.3816 33.0281 12.125C30.3431 6.55629 24.9188 3.78879 24.6712 3.66504C24.4629 3.56076 24.233 3.50647 24 3.50647C23.767 3.50647 23.5371 3.56076 23.3287 3.66504C23.0794 3.78879 17.6569 6.55629 14.9719 12.125C13.0686 11.3816 11.0433 11 9 11C8.60218 11 8.22064 11.1581 7.93934 11.4394C7.65804 11.7207 7.5 12.1022 7.5 12.5V27.5C7.5 31.8761 9.23839 36.073 12.3327 39.1673C15.4271 42.2617 19.6239 44 24 44C28.3761 44 32.5729 42.2617 35.6673 39.1673C38.7616 36.073 40.5 31.8761 40.5 27.5V12.5C40.5 12.1022 40.342 11.7207 40.0607 11.4394C39.7794 11.1581 39.3978 11 39 11ZM22.5 40.9175C19.2013 40.5446 16.1551 38.9709 13.9421 36.4965C11.729 34.022 10.5038 30.8198 10.5 27.5V24.5825C13.7987 24.9555 16.8449 26.5292 19.0579 29.0036C21.271 31.4781 22.4962 34.6803 22.5 38V40.9175ZM22.5 28.5238C21.1244 26.5631 19.3384 24.9255 17.2662 23.7245C15.1939 22.5236 12.8851 21.7882 10.5 21.5694V14.0825C13.7987 14.4555 16.8449 16.0292 19.0579 18.5036C21.271 20.9781 22.4962 24.1803 22.5 27.5V28.5238ZM17.6531 13.4582C19.3819 9.85629 22.605 7.58379 24 6.72692C25.395 7.58567 28.6181 9.85817 30.345 13.4582C27.572 15.1743 25.3653 17.6685 24 20.63C22.6346 17.668 20.4271 15.1737 17.6531 13.4582ZM37.5 27.5C37.4962 30.8198 36.271 34.022 34.0579 36.4965C31.8449 38.9709 28.7987 40.5446 25.5 40.9175V38C25.5038 34.6803 26.729 31.4781 28.9421 29.0036C31.1551 26.5292 34.2013 24.9555 37.5 24.5825V27.5ZM37.5 21.5694C35.1149 21.7882 32.8061 22.5236 30.7338 23.7245C28.6616 24.9255 26.8756 26.5631 25.5 28.5238V27.5C25.5038 24.1803 26.729 20.9781 28.9421 18.5036C31.1551 16.0292 34.2013 14.4555 37.5 14.0825V21.5694Z" fill="#FEF1F9"/>
</g>
</svg>
