<svg width="48" height="49" viewBox="0 0 48 49" fill="none" xmlns="http://www.w3.org/2000/svg">
<g id="Curate">
<path id="Vector" d="M33 44C33 44.3979 32.842 44.7794 32.5607 45.0607C32.2794 45.342 31.8978 45.5 31.5 45.5H16.5C16.1022 45.5 15.7206 45.342 15.4393 45.0607C15.158 44.7794 15 44.3979 15 44C15 43.6022 15.158 43.2207 15.4393 42.9394C15.7206 42.6581 16.1022 42.5 16.5 42.5H31.5C31.8978 42.5 32.2794 42.6581 32.5607 42.9394C32.842 43.2207 33 43.6022 33 44ZM40.5 20C40.5065 22.5006 39.9416 24.9696 38.8484 27.2186C37.7553 29.4676 36.1628 31.4371 34.1925 32.9769C33.8241 33.2593 33.5251 33.6222 33.3184 34.0378C33.1118 34.4535 33.0028 34.9108 33 35.375V36.5C33 37.2957 32.6839 38.0587 32.1213 38.6213C31.5587 39.184 30.7957 39.5 30 39.5H18C17.2044 39.5 16.4413 39.184 15.8787 38.6213C15.3161 38.0587 15 37.2957 15 36.5V35.375C14.9997 34.9164 14.8942 34.4639 14.6917 34.0524C14.4892 33.6409 14.1951 33.2813 13.8319 33.0013C11.8668 31.4708 10.2755 29.5134 9.1785 27.2772C8.0815 25.041 7.50753 22.5846 7.5 20.0938C7.45125 11.1557 14.6738 3.71565 23.6025 3.50003C25.8025 3.44701 27.9909 3.83463 30.0389 4.64006C32.0869 5.44549 33.9531 6.65247 35.5276 8.18995C37.1021 9.72743 38.3531 11.5643 39.2071 13.5926C40.061 15.6208 40.5006 17.7994 40.5 20ZM37.5 20C37.5005 18.1994 37.1408 16.4168 36.4421 14.7573C35.7433 13.0978 34.7197 11.5948 33.4313 10.3369C32.1429 9.07891 30.616 8.09141 28.9402 7.43248C27.2645 6.77355 25.4739 6.45651 23.6738 6.50003C16.3613 6.67253 10.4606 12.7607 10.5 20.0732C10.5067 22.1105 10.9768 24.1197 11.8747 25.9486C12.7725 27.7774 14.0747 29.3781 15.6825 30.6294C16.4052 31.1912 16.9898 31.911 17.3915 32.7335C17.7932 33.5561 18.0013 34.4596 18 35.375V36.5H22.5V28.1207L16.9387 22.5613C16.6573 22.2798 16.4992 21.8981 16.4992 21.5C16.4992 21.102 16.6573 20.7202 16.9387 20.4388C17.2202 20.1573 17.602 19.9992 18 19.9992C18.398 19.9992 18.7798 20.1573 19.0613 20.4388L24 25.3794L28.9387 20.4388C29.0781 20.2994 29.2436 20.1889 29.4257 20.1134C29.6077 20.038 29.8029 19.9992 30 19.9992C30.1971 19.9992 30.3923 20.038 30.5743 20.1134C30.7564 20.1889 30.9219 20.2994 31.0613 20.4388C31.2006 20.5781 31.3112 20.7436 31.3866 20.9257C31.462 21.1078 31.5008 21.3029 31.5008 21.5C31.5008 21.6971 31.462 21.8923 31.3866 22.0744C31.3112 22.2565 31.2006 22.4219 31.0613 22.5613L25.5 28.1207V36.5H30V35.375C30.0017 34.4569 30.2132 33.5514 30.6184 32.7276C31.0237 31.9038 31.6119 31.1835 32.3381 30.6219C33.9508 29.3616 35.2542 27.7495 36.1488 25.9086C37.0434 24.0677 37.5056 22.0468 37.5 20Z" fill="#FEF1F9"/>
</g>
</svg>
