<svg width="75" height="74" viewBox="0 0 75 74" fill="none" xmlns="http://www.w3.org/2000/svg">
<g id="google">
<rect x="1" y="0.5" width="73" height="73" rx="6.5" fill="#FEF1F9"/>
<rect x="1" y="0.5" width="73" height="73" rx="6.5" stroke="#FFA1DA"/>
<path id="Vector" d="M58.6308 37.486C58.6308 36.064 58.5048 34.714 58.2888 33.4H37.9488V41.518H49.5948C49.0728 44.182 47.5428 46.432 45.2748 47.962V53.362H52.2228C56.2908 49.6 58.6308 44.056 58.6308 37.486Z" fill="#4285F4"/>
<path id="Vector_2" d="M37.9489 58.5999C43.7809 58.5999 48.6589 56.6559 52.2229 53.3619L45.2749 47.9619C43.3309 49.2579 40.8649 50.0499 37.9489 50.0499C32.3149 50.0499 27.5449 46.2519 25.8349 41.1219H18.6709V46.6839C22.2169 53.7399 29.5069 58.5999 37.9489 58.5999Z" fill="#34A853"/>
<path id="Vector_3" d="M25.8348 41.122C25.3848 39.826 25.1508 38.44 25.1508 37C25.1508 35.56 25.4028 34.174 25.8348 32.878V27.316H18.6708C17.1948 30.232 16.3488 33.508 16.3488 37C16.3488 40.492 17.1948 43.768 18.6708 46.684L25.8348 41.122Z" fill="#FBBC05"/>
<path id="Vector_4" d="M37.9489 23.95C41.1349 23.95 43.9789 25.048 46.2289 27.19L52.3849 21.034C48.6589 17.542 43.7809 15.4 37.9489 15.4C29.5069 15.4 22.2169 20.26 18.6709 27.316L25.8349 32.878C27.5449 27.748 32.3149 23.95 37.9489 23.95Z" fill="#EA4335"/>
</g>
</svg>
