<svg width="73" height="72" viewBox="0 0 73 72" fill="none" xmlns="http://www.w3.org/2000/svg">
<g id="jll">
<rect x="0.5" width="72" height="72" rx="6" fill="#E30613"/>
<path id="Union" fill-rule="evenodd" clip-rule="evenodd" d="M33.0908 15.1931L33.057 15.208C32.0495 14.7109 30.8894 14.4313 29.7912 14.3999V14.4634C30.4503 14.9028 31.0473 15.4353 31.6129 16.0303L31.3458 16.2083C29.4422 17.6678 28.0144 19.6349 26.904 21.7606C25.6032 24.3622 24.7466 27.2177 24.3024 30.0414C24.0168 31.9133 23.8899 33.7217 23.8899 35.5619C23.8899 37.3703 24.0168 39.2105 24.3024 41.0507C24.7466 43.8744 25.5715 46.7616 26.904 49.3315C27.8875 51.2985 29.2201 53.1387 30.9333 54.5664C31.4727 53.9953 31.9803 53.3608 32.4562 52.6945L31.9803 52.0283C29.2518 47.9672 27.9193 43.1447 27.602 38.2904C27.5385 37.4021 27.5068 36.4503 27.5068 35.5619C27.5068 34.6735 27.5385 33.7217 27.602 32.8334C27.9193 27.9791 29.2518 23.1249 31.9803 19.0955C32.3293 18.5879 32.6783 18.112 33.0591 17.6043C33.5032 17.065 33.9791 16.5256 34.5185 16.018C35.0579 15.5104 35.629 15.0344 36.2318 14.622C36.2635 14.6061 36.2873 14.5903 36.3111 14.5744L36.3111 14.5744C36.3349 14.5585 36.3587 14.5427 36.3904 14.5268V14.4634C36.4063 14.4792 36.4221 14.4872 36.438 14.4951C36.4538 14.503 36.4697 14.5109 36.4856 14.5268C36.5807 14.5903 36.668 14.6537 36.7552 14.7172C36.8425 14.7806 36.9297 14.8441 37.0249 14.9075C37.4691 15.2565 37.8816 15.6055 38.2623 15.9863L38.2623 15.9862C38.3272 15.9473 38.3921 15.9084 38.457 15.8696C38.3814 15.9182 38.306 15.9677 38.2305 16.018L37.945 16.2083C37.4119 16.616 36.8788 17.0857 36.3763 17.6173C36.0111 17.2267 35.6448 16.8933 35.2492 16.589C34.7099 17.1601 34.2022 17.7946 33.7263 18.4609L34.2022 19.1272L34.6369 19.8227L34.6136 19.857C34.2012 20.4598 33.8522 21.1261 33.5032 21.7923C32.2024 24.3939 31.3457 27.2494 30.9015 30.0731C30.616 31.9133 30.4891 33.7534 30.4891 35.5619C30.4891 37.3703 30.616 39.2105 30.9015 41.0507C31.3457 43.8744 32.1706 46.7616 33.5032 49.3315C33.5825 49.4742 33.6618 49.625 33.7411 49.7757C33.8204 49.9264 33.8998 50.0771 33.9791 50.2198C34.6771 48.9507 35.2482 47.5865 35.7241 46.1587C34.8674 43.6206 34.3598 40.9238 34.1694 38.2587C34.106 37.3703 34.0743 36.4185 34.0743 35.5302C34.0743 34.6418 34.106 33.69 34.1694 32.8016C34.3915 29.5337 35.0578 26.2658 36.3269 23.22C36.8345 22.0779 37.4056 20.904 38.1036 19.8252C38.1565 19.7406 38.2058 19.656 38.2552 19.5714C38.3539 19.4022 38.4526 19.233 38.5795 19.0638C38.9285 18.5562 39.2775 18.0802 39.6582 17.5726C40.1024 17.0333 40.5783 16.4939 41.1177 15.9863C41.657 15.4469 42.2281 14.971 42.8627 14.5268C42.8944 14.5109 42.9182 14.4951 42.942 14.4792C42.9658 14.4634 42.9896 14.4475 43.0213 14.4316V14.4634C44.7663 15.669 46.2575 17.3505 47.3996 19.1272C50.1282 23.1883 51.4607 28.0108 51.778 32.8651C51.8414 33.7534 51.8731 34.7053 51.8731 35.5936C51.8731 36.482 51.8414 37.4338 51.778 38.3222C51.4607 43.1764 50.1282 48.0307 47.3996 52.06C46.2257 53.805 44.7345 55.4865 42.9896 56.7239V56.7873C44.798 56.7239 46.6064 56.0259 48.0659 54.9154C50.0013 53.456 51.429 51.4889 52.5077 49.3632C53.8085 46.7616 54.6651 43.9061 55.1093 41.0824C55.3949 39.2422 55.5218 37.4021 55.5218 35.5936C55.5218 33.7852 55.3949 31.945 55.1093 30.1048C54.6651 27.2811 53.8402 24.3939 52.5077 21.824C51.429 19.6983 49.9695 17.6678 48.0659 16.2718C46.6064 15.1296 44.798 14.4316 43.0213 14.3999C41.8791 14.4316 40.7687 14.7172 39.69 15.1931C39.0237 14.8758 38.2623 14.6537 37.5326 14.5268C37.5084 14.5228 37.4847 14.5188 37.4614 14.5148C37.3014 14.4875 37.1594 14.4634 36.9932 14.4634C36.8028 14.4316 36.6125 14.3999 36.3904 14.3999M33.0908 15.1931C34.1378 14.7172 35.2799 14.4316 36.3904 14.3999L33.0908 15.1931ZM41.1293 55.1509C40.8971 55.3155 40.656 55.4632 40.4018 55.6027C40.6471 55.4631 40.8883 55.3111 41.1293 55.1509ZM41.1486 55.1381L41.1493 55.1376L41.4349 54.9472C43.3702 53.4878 44.798 51.5207 45.8767 49.395C47.1775 46.7933 48.0341 43.9379 48.4783 41.1142C48.7639 39.274 48.8908 37.4338 48.8908 35.6254C48.8908 33.817 48.7639 31.9768 48.4783 30.1366C48.0341 27.3129 47.2092 24.4257 45.8767 21.8558C44.8931 19.8887 43.5606 18.0486 41.8473 16.6209C41.308 17.1919 40.8003 17.8265 40.3244 18.4928L40.8003 19.159C43.5289 23.2201 44.8614 28.0426 45.1787 32.8969C45.2421 33.7852 45.2739 34.737 45.2739 35.6254C45.2739 36.5138 45.2421 37.4656 45.1787 38.3539C44.8614 43.2082 43.5289 48.0624 40.8003 52.0918C40.4513 52.5994 40.1023 53.0753 39.7216 53.583C39.2774 54.1223 38.8015 54.6617 38.2622 55.1693C37.7228 55.7087 37.1517 56.1846 36.5172 56.6288C36.4855 56.6446 36.4617 56.6605 36.4379 56.6763C36.4223 56.6867 36.4068 56.697 36.3891 56.7074V56.6921C36.3732 56.6762 36.3574 56.6683 36.3415 56.6603C36.3256 56.6524 36.3098 56.6445 36.2939 56.6286L36.2817 56.6307C36.2033 56.5771 36.1296 56.5235 36.056 56.47C35.9687 56.4065 35.8815 56.3431 35.7863 56.2796C35.3421 55.9306 34.9297 55.5816 34.5489 55.2009C34.1048 55.5182 33.6288 55.772 33.0895 56.0258C33.7558 56.3431 34.5172 56.5652 35.2469 56.6921C35.4235 56.6626 35.5729 56.6878 35.7455 56.7169L35.7863 56.7238L35.8432 56.7142C36.0235 56.753 36.201 56.7554 36.3585 56.7555V56.7874C37.5322 56.7239 38.6742 56.4385 39.6893 55.9628C40.7044 56.4385 41.8781 56.7239 42.9883 56.7556V56.6922C42.3539 56.2481 41.7196 55.709 41.1486 55.1381ZM34.5503 55.1376C34.0744 55.4549 33.5985 55.7404 33.0908 55.9625C32.0756 56.4384 30.9017 56.724 29.7912 56.7557V56.6922C29.823 56.6764 29.8468 56.6605 29.8705 56.6446C29.8943 56.6288 29.9181 56.6129 29.9499 56.597C30.5844 56.1529 31.1555 55.677 31.6949 55.1376C32.2342 54.63 32.7101 54.0906 33.1543 53.5512C33.535 53.0436 33.884 52.5677 34.233 52.0601C34.3599 51.8909 34.4586 51.7216 34.5573 51.5524C34.6067 51.4678 34.6561 51.3832 34.7089 51.2986C35.4069 50.2199 35.978 49.0777 36.4539 47.9038C37.723 44.858 38.3893 41.5901 38.6114 38.3222C38.6748 37.4339 38.7065 36.4821 38.7065 35.5937C38.7065 34.7053 38.6748 33.7535 38.6114 32.8652C38.421 30.2001 37.9134 27.5033 37.0567 24.9651C37.5326 23.5374 38.1037 22.1731 38.8017 20.904C38.8811 21.0468 38.9604 21.1975 39.0397 21.3482C39.119 21.4989 39.1983 21.6496 39.2776 21.7924C40.6102 24.3623 41.4351 27.2495 41.8793 30.0732C42.1648 31.9134 42.2917 33.7535 42.2917 35.562C42.2917 37.3704 42.1648 39.2106 41.8793 41.0508C41.4351 43.8745 40.5784 46.7299 39.2776 49.3315L39.2776 49.3316C38.9286 49.9979 38.5796 50.6641 38.1672 51.2669L38.1403 51.3064L38.6113 52.0599L39.0872 52.7262C38.6113 53.3925 38.1037 54.027 37.5643 54.5981C37.4406 54.4847 37.3101 54.3712 37.1784 54.2567L37.1782 54.2565C36.9054 54.0194 36.6273 53.7775 36.3922 53.5214C35.8946 54.0776 35.3957 54.5429 34.8358 54.9472L34.5503 55.1376ZM37.7063 51.9238C37.3214 52.466 36.9005 53.0025 36.4323 53.4772C36.8854 53.0001 37.3063 52.4746 37.7063 51.9238ZM20.3048 21.7924C21.3835 19.6667 22.8112 17.6996 24.7466 16.2401C26.1743 15.1297 27.9827 14.4317 29.7912 14.4V14.4634C28.0145 15.669 26.5233 17.3506 25.3811 19.0956C22.6526 23.1249 21.32 27.9792 21.0028 32.8334C20.9393 33.7218 20.9076 34.6736 20.9076 35.562C20.9076 36.4503 20.9393 37.4021 21.0028 38.2905C21.32 43.1447 22.6526 47.9673 25.3811 52.0283C26.555 53.8051 28.0145 55.4866 29.7912 56.6922V56.7557C27.9827 56.6922 26.206 55.9625 24.7466 54.9155C22.8429 53.5195 21.3835 51.489 20.3048 49.3633C18.9722 46.7934 18.1473 43.9062 17.7031 41.0825C17.4176 39.2423 17.2907 37.4021 17.2907 35.5937C17.2907 33.7535 17.4176 31.9451 17.7031 30.0732C18.1473 27.2495 19.004 24.394 20.3048 21.7924Z" fill="white"/>
</g>
</svg>
