<svg width="75" height="74" viewBox="0 0 75 74" fill="none" xmlns="http://www.w3.org/2000/svg">
<g id="meta">
<g clip-path="url(#clip0_28_329)">
<path id="Vector" fill-rule="evenodd" clip-rule="evenodd" d="M1.5 37V73H37.5H73.5V37V1H37.5H1.5V37Z" fill="#FEF1F9"/>
<path id="Vector_2" d="M19.8605 40.9512C19.8605 42.5705 20.2377 43.8137 20.7306 44.5659C21.3769 45.5509 22.3409 45.9683 23.3237 45.9683C24.5913 45.9683 25.7507 45.672 27.9854 42.7591C29.7758 40.4247 31.8851 37.1478 33.3044 35.0934L35.7081 31.6128C37.3778 29.1959 39.3106 26.5087 41.5264 24.6873C43.3354 23.2009 45.2868 22.375 47.2508 22.375C50.548 22.375 53.6888 24.1757 56.0924 27.5529C58.7231 31.2517 60 35.9103 60 40.7181C60 43.5763 59.4022 45.6762 58.3849 47.3354C57.4024 48.9398 55.4869 50.543 52.2647 50.543V45.9683C55.0237 45.9683 55.7122 43.5792 55.7122 40.845C55.7122 36.9487 54.7483 32.6247 52.6247 29.535C51.1177 27.3435 49.1647 26.0045 47.0162 26.0045C44.6921 26.0045 42.8221 27.6562 40.7204 30.6012C39.6033 32.1659 38.4562 34.0728 37.1681 36.2244L35.7504 38.5914C32.9023 43.3506 32.181 44.4345 30.757 46.2234C28.2608 49.3559 26.1294 50.543 23.3237 50.543C19.9951 50.543 17.8903 49.1849 16.5868 47.1378C15.5227 45.4699 15 43.2813 15 40.7874L19.8605 40.9512Z" fill="#0081FB"/>
<path id="Vector_3" d="M18.8326 27.8758C21.061 24.6387 24.2767 22.375 27.9652 22.375C30.1013 22.375 32.2249 22.9708 34.4425 24.6772C36.868 26.5427 39.4532 29.6146 42.6784 34.6776L43.8349 36.4944C46.6267 40.8774 48.2149 43.1324 49.1444 44.1957C50.3401 45.5612 51.1773 45.9683 52.2649 45.9683C55.0239 45.9683 55.7124 43.5792 55.7124 40.845L60.0002 40.7181C60.0002 43.5763 59.4024 45.6762 58.3852 47.3354C57.4024 48.9398 55.4869 50.543 52.2649 50.543C50.2618 50.543 48.4872 50.133 46.525 48.3884C45.0163 47.0494 43.2528 44.6705 41.896 42.5321L37.86 36.1788C35.8352 32.9903 33.9776 30.6132 32.9026 29.5365C31.7461 28.3787 30.2595 26.9808 27.8871 26.9808C25.9669 26.9808 24.3364 28.2504 22.9717 30.1926L18.8326 27.8758Z" fill="url(#paint0_linear_28_329)"/>
<path id="Vector_4" d="M27.8869 26.9807C25.9667 26.9807 24.3362 28.2504 22.9716 30.1926C21.042 32.9372 19.8606 37.0254 19.8606 40.9512C19.8606 42.5705 20.2377 43.8137 20.7306 44.5658L16.5868 47.1378C15.5227 45.4699 15 43.2813 15 40.7874C15 36.2525 16.3208 31.526 18.8324 27.8758C21.0608 24.6387 24.2767 22.375 27.9652 22.375L27.8869 26.9807Z" fill="url(#paint1_linear_28_329)"/>
</g>
<rect x="1" y="0.5" width="73" height="73" rx="6.5" stroke="#FFA1DA"/>
</g>
<defs>
<linearGradient id="paint0_linear_28_329" x1="24.5461" y1="39.6298" x2="55.5209" y2="41.2898" gradientUnits="userSpaceOnUse">
<stop stop-color="#0064E1"/>
<stop offset="0.4" stop-color="#0064E1"/>
<stop offset="0.83" stop-color="#0073EE"/>
<stop offset="1" stop-color="#0082FB"/>
</linearGradient>
<linearGradient id="paint1_linear_28_329" x1="22.042" y1="42.8743" x2="22.042" y2="32.1085" gradientUnits="userSpaceOnUse">
<stop stop-color="#0082FB"/>
<stop offset="1" stop-color="#0064E0"/>
</linearGradient>
<clipPath id="clip0_28_329">
<rect x="1.5" y="1" width="72" height="72" rx="6" fill="white"/>
</clipPath>
</defs>
</svg>
