<svg width="48" height="49" viewBox="0 0 48 49" fill="none" xmlns="http://www.w3.org/2000/svg">
<g id="Personalize">
<path id="Vector" d="M28.5 15.5C29.6867 15.5 30.8467 15.1481 31.8334 14.4888C32.8201 13.8295 33.5891 12.8925 34.0433 11.7961C34.4974 10.6997 34.6162 9.49335 34.3847 8.32946C34.1532 7.16558 33.5817 6.09648 32.7426 5.25736C31.9035 4.41825 30.8344 3.8468 29.6705 3.61529C28.5066 3.38378 27.3002 3.5026 26.2039 3.95673C25.1075 4.41085 24.1705 5.17989 23.5112 6.16658C22.8519 7.15328 22.5 8.31332 22.5 9.5C22.5 11.0913 23.1321 12.6174 24.2574 13.7426C25.3826 14.8679 26.9087 15.5 28.5 15.5ZM28.5 6.5C29.0933 6.5 29.6734 6.67595 30.1667 7.00559C30.6601 7.33524 31.0446 7.80377 31.2716 8.35195C31.4987 8.90013 31.5581 9.50333 31.4423 10.0853C31.3266 10.6672 31.0409 11.2018 30.6213 11.6213C30.2018 12.0409 29.6672 12.3266 29.0853 12.4424C28.5033 12.5581 27.9001 12.4987 27.3519 12.2716C26.8038 12.0446 26.3352 11.6601 26.0056 11.1667C25.6759 10.6734 25.5 10.0933 25.5 9.5C25.5 8.70435 25.8161 7.94129 26.3787 7.37868C26.9413 6.81607 27.7043 6.5 28.5 6.5ZM37.5 27.5V44C37.5 44.3978 37.342 44.7794 37.0607 45.0607C36.7793 45.342 36.3978 45.5 36 45.5C35.6022 45.5 35.2206 45.342 34.9393 45.0607C34.658 44.7794 34.5 44.3978 34.5 44V28.9363C29.6719 28.5144 28.0594 26.0263 26.625 23.8063C26.0906 22.9831 25.5825 22.1994 24.9131 21.5206L22.4006 27.2975L29.3756 32.2794C29.5692 32.4186 29.7268 32.6019 29.8354 32.8142C29.944 33.0265 30.0004 33.2616 30 33.5V44C30 44.3978 29.842 44.7794 29.5607 45.0607C29.2793 45.342 28.8978 45.5 28.5 45.5C28.1022 45.5 27.7206 45.342 27.4393 45.0607C27.158 44.7794 27 44.3978 27 44V34.2725L21.1744 30.11L14.8762 44.5981C14.7597 44.8662 14.5673 45.0944 14.3228 45.2546C14.0783 45.4148 13.7923 45.5001 13.5 45.5C13.294 45.5005 13.0902 45.4577 12.9019 45.3744C12.5376 45.2155 12.2512 44.9186 12.1057 44.5487C11.9601 44.1789 11.9673 43.7664 12.1256 43.4019L22.9106 18.5938C22.9925 18.4056 23.1121 18.2362 23.2621 18.096C23.4121 17.9559 23.5892 17.8481 23.7826 17.7792C23.9759 17.7103 24.1813 17.6818 24.3861 17.6955C24.5909 17.7092 24.7907 17.7647 24.9731 17.8588C25.512 18.14 26.0155 18.4843 26.4731 18.8844C27.6675 19.9194 28.4437 21.1175 29.1281 22.175C30.5681 24.395 31.6069 26 35.9906 26C36.1884 25.9988 36.3845 26.0367 36.5675 26.1115C36.7506 26.1863 36.9171 26.2966 37.0573 26.436C37.1976 26.5754 37.309 26.7412 37.3849 26.9238C37.4609 27.1064 37.5 27.3022 37.5 27.5ZM13.5 29C13.7935 28.9999 14.0805 28.9136 14.3254 28.752C14.5704 28.5904 14.7626 28.3604 14.8781 28.0906L19.3781 17.5906C19.5346 17.2251 19.5395 16.8124 19.3919 16.4433C19.2442 16.0741 18.956 15.7787 18.5906 15.6219L13.3406 13.3719C12.9751 13.2154 12.5624 13.2105 12.1932 13.3581C11.8241 13.5058 11.5286 13.794 11.3719 14.1594L6.87187 24.6594C6.7154 25.0249 6.71046 25.4376 6.85812 25.8068C7.00579 26.1759 7.29398 26.4714 7.65937 26.6281L12.9094 28.8781C13.096 28.9583 13.2969 28.9998 13.5 29ZM10.2206 24.4625L13.5375 16.7188L16.0312 17.7875L12.7125 25.5294L10.2206 24.4625Z" fill="#FEF1F9"/>
</g>
</svg>
