<svg width="20" height="20" viewBox="0 0 20 20" fill="none" xmlns="http://www.w3.org/2000/svg">
<path d="M17.9422 17.0579L14.0305 13.1469C15.1642 11.7858 15.7296 10.0399 15.6089 8.27251C15.4883 6.50512 14.6909 4.85229 13.3826 3.65785C12.0744 2.46341 10.356 1.81932 8.58492 1.85957C6.81388 1.89982 5.12653 2.62131 3.87389 3.87395C2.62125 5.12659 1.89976 6.81394 1.85951 8.58498C1.81926 10.356 2.46334 12.0744 3.65779 13.3827C4.85223 14.6909 6.50506 15.4883 8.27244 15.609C10.0398 15.7297 11.7857 15.1643 13.1469 14.0305L17.0578 17.9422C17.1159 18.0003 17.1848 18.0464 17.2607 18.0778C17.3366 18.1092 17.4179 18.1254 17.5 18.1254C17.5821 18.1254 17.6634 18.1092 17.7393 18.0778C17.8152 18.0464 17.8841 18.0003 17.9422 17.9422C18.0003 17.8842 18.0463 17.8152 18.0777 17.7394C18.1092 17.6635 18.1253 17.5822 18.1253 17.5001C18.1253 17.4179 18.1092 17.3366 18.0777 17.2607C18.0463 17.1849 18.0003 17.1159 17.9422 17.0579ZM3.125 8.75006C3.125 7.63754 3.4549 6.55 4.07298 5.62497C4.69106 4.69995 5.56957 3.97898 6.5974 3.55323C7.62524 3.12749 8.75624 3.0161 9.84738 3.23314C10.9385 3.45018 11.9408 3.98591 12.7275 4.77258C13.5141 5.55925 14.0499 6.56153 14.2669 7.65267C14.484 8.74382 14.3726 9.87482 13.9468 10.9027C13.5211 11.9305 12.8001 12.809 11.8751 13.4271C10.9501 14.0452 9.86252 14.3751 8.75 14.3751C7.25866 14.3734 5.82888 13.7802 4.77435 12.7257C3.71981 11.6712 3.12665 10.2414 3.125 8.75006Z" fill="#FEF1F9"/>
</svg>
